<?xml version="1.0" standalone="no"?>
<!DOCTYPE svg PUBLIC "-//W3C//DTD SVG 20010904//EN"
 "http://www.w3.org/TR/2001/REC-SVG-20010904/DTD/svg10.dtd">
<svg version="1.0" xmlns="http://www.w3.org/2000/svg"
 width="560.000000pt" height="646.000000pt" viewBox="0 0 560.000000 646.000000"
 preserveAspectRatio="xMidYMid meet">

<g transform="translate(0.000000,646.000000) scale(0.100000,-0.100000)"
fill="#000000" stroke="none">
<path d="M1249 6275 c-190 -46 -508 -236 -633 -378 -102 -115 -123 -152 -155
-278 -16 -64 -44 -147 -61 -184 -31 -66 -30 -92 2 -80 20 8 32 35 83 192 54
164 91 235 166 317 72 78 274 223 385 276 104 50 232 87 351 102 169 21 283
-18 407 -136 51 -50 66 -70 71 -101 3 -22 10 -49 14 -60 8 -19 9 -18 21 7 11
22 11 36 1 69 -17 57 -3 70 43 38 35 -23 76 -84 76 -110 0 -8 -16 -24 -35 -37
-40 -25 -47 -48 -12 -38 94 27 128 34 146 29 25 -6 26 -12 5 -41 -9 -13 -13
-26 -10 -29 3 -3 32 2 65 11 77 21 157 22 262 2 101 -20 132 -32 155 -57 16
-18 15 -21 -12 -61 -21 -33 -29 -58 -32 -106 -4 -58 -1 -68 39 -148 51 -98 64
-86 30 26 -33 108 -29 147 22 206 23 27 49 60 57 73 13 20 21 22 47 17 74 -17
112 -74 88 -133 -17 -40 -19 -79 -6 -88 6 -3 20 27 31 67 25 83 56 126 77 106
7 -8 19 -42 26 -78 l13 -64 22 31 c18 26 20 36 12 58 -6 15 -8 35 -5 45 18 56
193 52 252 -6 48 -48 59 -23 13 29 -16 19 -30 42 -30 50 0 22 55 36 166 44
l91 6 54 -40 c107 -80 127 -77 59 8 -22 28 -40 60 -40 72 0 34 105 127 197
175 113 59 211 82 342 82 98 0 115 -3 216 -39 359 -127 419 -151 453 -178 98
-78 298 -345 399 -529 30 -56 74 -125 98 -154 72 -88 97 -208 53 -250 -19 -18
-31 -20 -66 -15 -51 8 -122 36 -139 56 -6 8 -51 93 -99 189 -76 151 -96 183
-147 232 l-60 57 -7 81 c-8 89 -32 130 -77 130 -31 0 -29 -13 5 -26 43 -16 58
-55 44 -110 -18 -66 -15 -105 14 -185 l26 -72 -45 -96 c-25 -53 -48 -106 -51
-117 -4 -12 -39 -50 -78 -85 -75 -67 -98 -105 -98 -165 0 -29 -7 -44 -36 -70
-19 -19 -44 -39 -55 -45 -17 -9 -21 -6 -31 22 -22 62 -115 244 -142 276 -27
32 -94 79 -101 71 -3 -2 17 -30 44 -62 51 -60 128 -223 156 -332 8 -31 19
-136 25 -233 6 -97 18 -248 26 -336 17 -167 14 -377 -6 -445 -6 -19 -17 -91
-26 -159 -16 -131 -28 -165 -105 -286 -32 -51 -121 -135 -143 -135 -13 0 -5
25 24 72 17 27 33 62 36 77 7 34 -17 62 -46 54 -28 -7 -103 -91 -191 -214 -96
-135 -198 -237 -272 -273 -45 -23 -76 -30 -146 -34 -80 -4 -94 -2 -144 21 -67
30 -125 69 -226 149 -64 51 -194 122 -355 192 -38 17 -38 17 -31 59 4 23 10
82 14 130 5 54 14 94 22 102 8 7 61 30 119 50 57 21 121 48 141 61 53 33 81
97 77 173 -1 33 0 61 2 64 3 2 26 11 52 21 97 36 120 132 60 259 -57 123 -114
164 -297 214 -140 38 -270 38 -410 0 -177 -49 -288 -116 -321 -195 -32 -77 -4
-190 57 -235 29 -21 103 -33 143 -23 37 9 86 55 86 80 0 12 6 31 14 41 12 17
17 18 40 7 40 -18 50 -56 29 -101 -16 -32 -28 -40 -118 -74 -55 -21 -105 -43
-112 -49 -31 -25 3 -119 57 -158 41 -29 131 -60 175 -60 49 0 91 -24 112 -63
13 -24 17 -56 17 -130 0 -116 -13 -139 -89 -166 -27 -10 -142 -61 -255 -113
-256 -120 -313 -139 -421 -145 -156 -10 -234 35 -414 238 -116 131 -206 205
-262 215 -76 14 -82 -52 -14 -147 65 -92 99 -180 80 -210 -12 -20 -42 11 -122
130 -84 126 -108 188 -115 304 -3 65 -8 85 -16 77 -7 -7 -11 -58 -11 -135 0
-69 -1 -125 -3 -125 -2 0 -12 20 -23 44 -14 33 -22 83 -29 194 -5 82 -19 210
-31 283 -28 181 -22 321 22 469 31 104 31 107 39 420 10 393 11 395 159 512
42 33 114 105 161 161 47 56 113 130 147 164 60 59 63 63 63 111 0 39 10 69
46 141 52 103 54 139 8 184 -33 33 -81 41 -264 40 -137 0 -152 -2 -266 -36
-183 -55 -286 -95 -317 -125 -27 -26 -67 -97 -67 -120 0 -21 18 -13 24 12 3
13 22 38 42 55 30 27 43 32 77 29 39 -3 44 -7 69 -53 33 -60 35 -89 8 -133
-25 -41 -25 -45 0 -32 21 11 70 88 70 111 0 8 -14 43 -30 78 -17 35 -29 65
-28 67 2 1 65 21 142 44 127 38 147 41 251 41 126 -1 148 -6 188 -48 36 -38
44 -90 23 -132 -9 -17 -20 -61 -25 -96 -7 -60 -11 -68 -50 -101 -23 -20 -78
-81 -122 -135 -43 -54 -107 -122 -142 -151 -115 -98 -162 -151 -195 -221 -17
-38 -36 -66 -40 -63 -5 3 -12 23 -15 43 -8 48 -53 139 -72 147 -20 7 -19 -20
2 -99 15 -56 15 -71 4 -115 -11 -44 -11 -54 4 -76 9 -14 31 -34 50 -45 18 -11
36 -28 40 -37 10 -25 7 -295 -5 -385 -5 -43 -18 -107 -29 -141 -47 -153 -50
-302 -11 -571 11 -71 24 -191 30 -265 12 -149 16 -159 89 -226 111 -104 151
-145 228 -240 99 -122 117 -152 133 -224 16 -67 63 -174 117 -260 22 -36 51
-85 66 -110 14 -25 79 -102 144 -170 76 -80 146 -166 195 -240 51 -78 104
-142 165 -201 110 -106 187 -147 300 -160 290 -32 355 -41 408 -56 36 -10 102
-17 166 -17 104 -1 106 0 182 39 230 117 310 245 274 433 l-14 74 52 66 c29
37 101 108 161 159 60 50 121 104 136 120 52 55 98 147 143 290 l47 144 76 82
c84 91 109 109 197 144 33 14 75 36 93 50 62 46 63 52 65 275 2 176 6 215 26
293 22 83 23 102 17 255 -4 91 -13 233 -21 315 -8 83 -15 206 -15 275 l0 126
65 64 c52 52 65 70 65 96 0 55 20 92 75 139 30 25 73 75 96 110 22 35 57 74
77 88 46 30 98 48 117 41 8 -4 36 -46 62 -95 25 -49 59 -102 75 -118 34 -35
123 -71 189 -78 42 -5 47 -3 78 33 l33 37 -4 91 c-5 104 -15 128 -87 211 -27
30 -65 87 -85 125 -84 159 -249 387 -371 512 l-76 76 -122 40 c-67 22 -196 66
-287 98 -206 72 -253 74 -462 20 -180 -46 -238 -71 -238 -101 0 -24 -17 -35
-54 -35 -32 0 -71 -33 -102 -86 -28 -48 -26 -47 -154 -62 -47 -6 -107 -21
-135 -33 -48 -22 -62 -23 -290 -24 -229 0 -245 1 -350 27 -123 31 -258 48
-323 40 -35 -3 -50 0 -75 19 -25 18 -43 23 -81 22 -45 -2 -48 -1 -43 19 9 32
-16 82 -54 110 -19 14 -113 66 -211 117 l-176 91 -154 -1 c-91 0 -175 -6 -209
-14z m1698 -2020 c68 -21 111 -50 119 -81 5 -20 2 -31 -11 -41 -30 -21 -42
-16 -104 41 -73 67 -114 80 -233 73 -49 -2 -88 -1 -88 3 0 14 122 29 197 24
39 -3 93 -11 120 -19z m74 -328 c3 -20 12 -43 19 -52 18 -21 7 -28 -29 -20
-49 11 -67 61 -34 97 23 26 37 18 44 -25z m1389 -638 c0 -43 -24 -84 -65 -109
-20 -12 -38 -20 -41 -18 -7 8 35 100 62 136 29 37 44 34 44 -9z m-3027 1 c47
-41 87 -121 147 -295 89 -258 140 -332 324 -478 167 -131 245 -200 252 -219 3
-11 48 -66 100 -121 52 -56 111 -127 131 -157 53 -78 115 -152 208 -248 l80
-84 -60 7 c-262 29 -383 104 -511 317 -50 85 -92 136 -200 248 -164 170 -295
391 -328 554 -33 160 -108 367 -161 442 -19 27 -35 52 -35 56 0 16 20 7 53
-22z m2739 -62 c-54 -79 -92 -167 -163 -378 -109 -327 -112 -331 -284 -475
-65 -54 -135 -121 -157 -149 -22 -28 -43 -52 -47 -54 -4 -1 -20 24 -36 57 -24
51 -26 62 -15 76 8 9 79 67 160 130 216 168 237 193 311 392 21 56 61 145 88
198 54 104 148 245 163 245 5 0 -4 -19 -20 -42z m-1067 -233 c79 -21 148 -60
169 -96 13 -22 20 -65 26 -168 4 -77 10 -143 13 -149 4 -5 16 -53 27 -107 14
-62 41 -141 77 -217 54 -118 93 -244 93 -299 0 -40 -34 -143 -59 -178 -26 -37
-112 -97 -208 -146 -60 -31 -77 -35 -146 -35 -100 0 -209 25 -246 56 -16 13
-36 24 -44 24 -33 0 -235 169 -322 270 -63 74 -125 205 -180 384 -53 174 -75
300 -75 443 l0 102 78 29 c144 56 188 65 288 60 107 -6 149 -25 176 -78 22
-43 23 -116 3 -190 -19 -72 -19 -212 1 -279 15 -50 76 -133 88 -120 4 3 -7 35
-24 70 -51 110 -58 211 -19 304 7 17 15 84 18 149 6 113 7 120 32 138 63 47
138 58 234 33z"/>
<path d="M3948 5961 c-25 -10 -61 -29 -78 -41 -30 -21 -32 -26 -28 -71 3 -26
21 -81 40 -121 40 -81 58 -138 58 -181 0 -35 21 -32 34 6 6 17 4 53 -7 111
-25 127 -23 152 16 191 46 46 100 58 227 52 84 -4 122 -11 189 -36 47 -17 86
-29 88 -27 7 6 -59 43 -117 66 -90 34 -251 70 -315 70 -33 -1 -81 -9 -107 -19z"/>
<path d="M1143 5650 c-37 -22 -54 -51 -78 -135 -24 -83 -50 -133 -99 -184
l-41 -44 30 8 c40 9 88 47 113 87 11 18 29 68 41 111 24 86 41 127 65 146 17
14 21 31 9 31 -5 0 -22 -9 -40 -20z"/>
<path d="M4535 5628 c-55 -49 -50 -114 18 -195 58 -71 74 -116 53 -146 -43
-60 -48 -68 -43 -74 11 -11 87 47 98 74 14 37 -3 86 -57 164 -56 82 -63 132
-25 173 24 26 24 26 3 26 -11 0 -32 -10 -47 -22z"/>
<path d="M717 5552 c-9 -10 -45 -97 -81 -195 -85 -231 -145 -321 -229 -342
-64 -16 -101 56 -78 155 11 48 4 64 -22 55 -35 -14 -49 -126 -23 -188 7 -18
25 -41 40 -50 75 -50 147 -23 229 86 62 82 80 114 96 175 7 23 15 42 19 42 4
0 16 7 26 15 16 12 17 17 6 30 -15 18 -7 84 21 169 22 64 21 76 -4 48z"/>
<path d="M2835 5395 c-51 -115 -92 -357 -79 -464 7 -58 24 -52 24 9 0 45 45
310 71 419 10 46 17 86 14 89 -2 3 -16 -21 -30 -53z"/>
<path d="M3302 5380 c-56 -27 -102 -51 -102 -54 0 -2 26 3 58 11 38 10 87 14
147 11 79 -3 101 -8 165 -39 93 -44 199 -128 357 -281 115 -112 144 -136 126
-104 -16 29 -240 270 -334 360 -115 111 -178 146 -259 146 -48 0 -73 -8 -158
-50z"/>
<path d="M4054 5334 c13 -56 39 -78 142 -119 82 -32 108 -49 154 -95 32 -31
72 -87 95 -130 43 -82 58 -76 25 11 -56 148 -121 213 -300 302 -57 29 -109 54
-114 56 -5 2 -6 -9 -2 -25z"/>
<path d="M1950 5326 c-55 -16 -153 -57 -240 -101 -141 -72 -135 -92 12 -41
167 57 283 69 372 36 92 -35 104 -56 151 -255 7 -27 8 -28 15 -10 15 36 10
111 -10 177 -25 80 -80 146 -152 182 -57 29 -81 30 -148 12z"/>
<path d="M1803 5041 c-23 -11 -73 -38 -110 -59 -37 -22 -84 -43 -103 -47 -75
-15 -75 -45 0 -45 26 0 55 -3 64 -6 21 -8 21 -54 1 -54 -35 0 -10 -59 37 -88
29 -18 55 -20 221 -24 217 -4 198 -17 167 124 -25 111 -53 179 -83 197 -37 24
-146 25 -194 2z m119 -113 c-16 -16 -37 4 -28 28 6 16 8 16 23 1 13 -13 15
-19 5 -29z m-118 16 c3 -9 6 -30 6 -47 0 -18 7 -40 14 -50 19 -25 73 -39 100
-25 35 18 66 50 66 70 0 27 19 22 30 -8 19 -48 -29 -96 -115 -115 -47 -10 -60
-10 -97 5 -82 32 -107 110 -52 161 31 29 40 31 48 9z"/>
<path d="M1400 4976 c-124 -98 -130 -113 -175 -452 -4 -25 -25 -72 -56 -120
-58 -92 -79 -156 -78 -233 l1 -56 13 50 c19 75 30 99 86 181 75 112 87 146 99
276 15 172 35 223 133 341 22 26 38 50 35 52 -2 2 -28 -15 -58 -39z"/>
<path d="M3584 4971 c-23 -10 -53 -35 -68 -54 -28 -37 -100 -223 -91 -236 2
-5 30 -11 62 -15 31 -4 87 -16 124 -27 81 -25 126 -16 191 36 24 19 71 53 106
76 l62 42 -37 17 c-21 9 -64 39 -95 67 -62 54 -137 98 -183 107 -19 4 -45 -1
-71 -13z m187 -119 c24 -21 31 -36 31 -64 0 -45 -33 -95 -68 -104 -100 -25
-273 51 -225 99 8 8 19 4 38 -15 74 -67 114 -74 158 -28 30 31 39 84 21 123
-12 26 9 21 45 -11z m-103 -5 c2 -10 -3 -17 -11 -17 -16 0 -30 24 -19 34 10
10 27 1 30 -17z"/>
<path d="M2517 4770 c-78 -13 -178 -47 -232 -79 -54 -31 -155 -117 -155 -132
0 -17 19 -9 84 36 97 68 364 170 417 160 77 -16 104 -17 93 -6 -26 28 -114 36
-207 21z"/>
<path d="M2820 4548 c-34 -12 -32 -12 50 -18 95 -7 122 -18 240 -101 97 -68
197 -168 249 -249 23 -36 72 -126 108 -200 72 -146 105 -201 165 -269 21 -25
62 -82 90 -128 61 -99 74 -111 64 -57 -11 56 -46 118 -125 224 -41 55 -99 150
-136 225 -130 263 -194 349 -340 458 -145 108 -269 147 -365 115z"/>
<path d="M4304 4338 c4 -13 16 -68 28 -123 18 -88 20 -122 15 -285 -3 -101 -2
-178 3 -170 34 62 47 337 21 440 -16 62 -56 160 -67 160 -3 0 -3 -10 0 -22z"/>
<path d="M1882 4059 c-164 -169 -175 -187 -225 -346 -50 -158 -43 -265 28
-414 28 -59 27 -62 4 71 -38 225 23 449 164 590 35 36 85 97 110 135 26 39 54
80 63 93 41 56 -2 17 -144 -129z"/>
<path d="M1880 3836 c0 -19 26 -27 39 -12 13 15 4 26 -21 26 -10 0 -18 -6 -18
-14z"/>
<path d="M3590 3676 c0 -17 27 -29 35 -16 4 6 3 15 0 20 -9 15 -35 12 -35 -4z"/>
<path d="M1867 3604 c-13 -13 -7 -24 14 -24 11 0 19 5 17 12 -5 14 -22 21 -31
12z"/>
<path d="M1243 3502 c-41 -33 -81 -122 -55 -122 5 0 17 9 26 19 33 36 69 44
142 32 36 -7 68 -10 71 -8 7 8 -69 69 -103 83 -43 18 -54 17 -81 -4z"/>
<path d="M4165 3501 c-22 -10 -47 -26 -55 -36 -14 -17 -12 -17 20 -9 77 19
156 -4 167 -47 8 -28 23 -23 23 6 0 38 -27 85 -56 95 -35 14 -53 12 -99 -9z"/>
<path d="M3582 3488 c7 -19 38 -22 38 -4 0 10 -9 16 -21 16 -12 0 -19 -5 -17
-12z"/>
<path d="M2197 3454 c-14 -14 -7 -35 11 -32 9 2 17 10 17 17 0 16 -18 25 -28
15z"/>
<path d="M3400 3361 c0 -12 6 -21 16 -21 9 0 14 7 12 17 -5 25 -28 28 -28 4z"/>
<path d="M3653 3314 c-7 -20 17 -37 34 -23 15 13 6 39 -13 39 -8 0 -17 -7 -21
-16z"/>
<path d="M2175 3290 c-9 -15 16 -43 27 -32 10 10 0 42 -12 42 -5 0 -12 -5 -15
-10z"/>
<path d="M1963 3274 c-7 -18 11 -39 26 -30 17 11 13 46 -4 46 -9 0 -18 -7 -22
-16z"/>
<path d="M3440 3181 c0 -12 6 -21 16 -21 9 0 14 7 12 17 -5 25 -28 28 -28 4z"/>
<path d="M3602 3074 c4 -21 22 -23 26 -1 2 10 -3 17 -13 17 -10 0 -15 -6 -13
-16z"/>
<path d="M4722 917 c-31 -33 -40 -102 -50 -377 -7 -187 -13 -242 -26 -267 -29
-57 -84 -70 -112 -28 -13 21 -18 60 -22 190 l-5 165 -26 0 c-66 0 -68 -2 -75
-117 -4 -58 -12 -128 -17 -154 -24 -111 -135 -153 -219 -82 -18 14 -30 35 -30
48 0 19 7 24 40 30 47 8 113 54 141 98 26 41 22 119 -9 149 -26 26 -101 34
-161 18 -88 -23 -131 -95 -131 -215 1 -129 64 -195 202 -211 65 -8 127 8 167
42 l30 25 41 -32 c31 -25 52 -33 93 -37 45 -3 58 0 96 26 l44 30 37 -24 c55
-36 118 -41 175 -14 l47 23 67 -22 c77 -25 128 -27 198 -6 66 20 85 43 91 110
4 49 2 57 -21 77 -14 13 -68 41 -119 63 -76 33 -94 45 -103 69 -8 23 -6 30 10
42 10 8 36 14 57 14 38 0 48 -7 87 -59 23 -32 68 -23 77 15 15 59 -82 100
-213 92 -53 -3 -67 -9 -93 -33 -41 -40 -42 -92 -1 -133 26 -25 128 -82 149
-82 15 0 61 -46 67 -67 5 -17 -1 -30 -20 -49 -23 -23 -33 -26 -71 -21 -71 8
-124 71 -124 147 0 35 -19 47 -48 31 -15 -8 -22 -28 -30 -83 -14 -94 -43 -120
-91 -80 -27 21 -41 101 -41 231 l0 93 44 50 c47 51 86 138 86 189 0 52 -22
119 -43 134 -12 9 -44 15 -72 15 -41 0 -56 -5 -73 -23z m112 -43 c14 -35 5
-149 -14 -192 -31 -69 -44 -46 -36 64 7 96 18 144 35 144 5 0 12 -7 15 -16z
m-609 -328 c22 -16 26 -96 5 -121 -20 -24 -69 -47 -86 -41 -31 12 -6 134 33
164 21 15 25 15 48 -2z"/>
<path d="M1292 868 c-154 -17 -290 -134 -280 -240 2 -28 7 -34 31 -36 22 -3
27 1 27 19 0 38 40 107 80 139 77 61 168 81 254 56 67 -20 136 -91 163 -169
27 -77 25 -263 -4 -333 -59 -148 -175 -201 -283 -130 -27 18 -48 45 -72 93
-32 65 -33 72 -33 188 0 106 3 126 24 168 26 54 75 91 134 101 27 5 37 12 37
26 0 42 -100 37 -172 -9 -83 -53 -126 -129 -135 -242 -14 -165 56 -317 173
-375 56 -28 222 -27 279 1 131 65 204 240 177 425 -13 95 -40 155 -98 219 -73
81 -174 114 -302 99z"/>
<path d="M2314 871 c-97 -24 -177 -97 -217 -199 -28 -70 -26 -268 3 -345 29
-77 87 -140 168 -179 59 -29 76 -33 152 -33 75 0 91 3 137 29 28 15 66 43 84
62 l32 33 31 -24 c175 -133 370 -6 335 217 -11 68 -36 114 -74 138 -71 44
-207 33 -262 -20 -31 -30 -40 -55 -69 -187 -17 -81 -56 -143 -105 -169 -35
-18 -140 -21 -181 -5 -47 18 -91 66 -124 135 -32 67 -34 76 -34 181 0 100 3
115 28 170 50 104 131 155 217 135 47 -11 75 -41 75 -80 0 -47 10 -60 44 -60
40 0 56 15 56 52 0 109 -149 184 -296 149z m565 -326 c34 -17 40 -30 51 -110
9 -57 2 -85 -21 -85 -17 0 -83 66 -95 97 -19 45 -18 90 4 102 23 14 28 13 61
-4z m6 -250 l48 -29 -34 -28 c-74 -62 -118 -22 -143 131 l-6 34 43 -40 c24
-22 65 -53 92 -68z"/>
<path d="M625 851 c-102 -27 -155 -90 -156 -185 -2 -103 41 -145 208 -207 145
-53 168 -76 168 -164 0 -61 -2 -67 -36 -101 -61 -61 -160 -60 -229 2 -42 38
-55 75 -52 141 3 39 1 42 -28 48 -70 15 -108 -55 -75 -140 32 -86 120 -137
246 -143 107 -5 174 14 229 67 81 77 79 233 -4 298 -25 20 -109 57 -217 97
-66 24 -101 64 -106 123 -4 42 -1 53 21 80 15 17 40 35 57 38 47 10 111 -3
144 -29 25 -20 30 -33 35 -82 l5 -59 36 -3 c49 -4 69 17 69 73 0 52 -32 95
-93 126 -44 23 -169 34 -222 20z"/>
<path d="M4422 784 c-45 -31 -17 -104 40 -104 53 0 79 74 36 104 -12 9 -29 16
-38 16 -9 0 -26 -7 -38 -16z"/>
<path d="M3097 594 c-11 -12 -8 -357 4 -393 11 -31 39 -46 76 -39 20 4 30 64
32 198 1 93 13 136 48 172 60 63 87 22 97 -146 4 -80 12 -121 26 -152 35 -72
114 -93 196 -53 l43 20 61 -22 c135 -49 293 10 293 110 0 51 -27 77 -138 132
-115 56 -133 73 -109 107 11 16 26 22 55 22 52 0 74 -13 87 -50 6 -17 18 -30
27 -30 29 0 55 20 55 44 0 47 -74 86 -164 86 -108 0 -176 -37 -176 -96 0 -50
42 -91 136 -135 89 -40 120 -73 110 -113 -8 -31 -55 -50 -104 -43 -48 8 -88
52 -97 108 -13 77 -35 97 -69 63 -11 -10 -16 -34 -16 -75 0 -46 -4 -63 -20
-79 -17 -17 -24 -18 -41 -10 -29 16 -37 46 -44 162 -8 123 -17 157 -51 189
-23 21 -34 24 -97 22 -40 -1 -85 -3 -102 -3 -16 0 -48 2 -70 5 -22 4 -43 3
-48 -1z"/>
</g>
</svg>
