<?xml version="1.0" standalone="no"?>
<!DOCTYPE svg PUBLIC "-//W3C//DTD SVG 20010904//EN"
 "http://www.w3.org/TR/2001/REC-SVG-20010904/DTD/svg10.dtd">
<svg version="1.0" xmlns="http://www.w3.org/2000/svg"
 width="399.000000pt" height="471.000000pt" viewBox="0 0 399.000000 471.000000"
 preserveAspectRatio="xMidYMid meet">

<g transform="translate(0.000000,471.000000) scale(0.100000,-0.100000)"
fill="#000000" stroke="none">
<path d="M783 4631 c-45 -16 -110 -43 -145 -61 -56 -29 -89 -51 -220 -146 -41
-30 -127 -132 -151 -179 -8 -17 -18 -49 -22 -70 -10 -61 -35 -136 -57 -173
-15 -24 -17 -37 -10 -44 19 -19 41 10 63 86 43 148 69 206 119 270 28 36 68
75 88 87 20 13 62 42 92 65 115 88 280 151 419 159 118 7 184 -16 269 -93 57
-52 64 -63 70 -107 7 -47 9 -49 20 -27 7 12 11 30 8 40 -2 9 -7 27 -11 40 -15
53 70 0 91 -56 10 -27 10 -32 -6 -37 -21 -7 -58 -45 -43 -45 6 0 27 7 46 15
43 18 97 20 97 3 0 -6 -7 -20 -17 -30 -20 -22 -13 -22 51 -3 62 19 116 19 185
0 30 -8 57 -12 61 -10 10 6 70 -33 70 -45 0 -6 -10 -25 -22 -41 -31 -42 -31
-123 0 -166 12 -17 27 -43 33 -59 22 -53 21 0 0 62 -30 85 -28 107 19 158 22
24 40 48 40 55 0 15 24 14 65 -3 39 -16 56 -57 36 -87 -13 -22 -15 -65 -3 -73
5 -3 14 22 21 54 14 62 43 102 62 83 6 -6 13 -32 17 -58 l7 -47 19 21 c16 17
17 25 8 45 -15 34 4 56 56 63 47 6 127 -18 136 -42 3 -8 10 -15 16 -15 18 0
11 20 -15 44 -48 44 -28 59 96 70 75 7 77 7 110 -22 39 -33 78 -56 86 -49 2 3
-12 23 -31 45 -20 22 -36 47 -36 56 0 29 68 93 138 129 103 53 166 70 262 70
79 1 95 -3 225 -52 77 -29 168 -62 203 -72 44 -14 75 -32 105 -62 91 -89 236
-291 282 -392 12 -27 41 -71 64 -97 31 -35 45 -61 54 -103 12 -58 7 -79 -25
-99 -20 -12 -119 17 -142 42 -8 10 -44 79 -79 153 -50 105 -73 141 -98 160
-50 34 -58 49 -57 100 1 61 -8 83 -37 99 -20 10 -28 11 -37 2 -9 -9 -7 -12 10
-12 12 0 29 -11 38 -26 15 -21 15 -31 6 -58 -17 -47 -15 -84 10 -144 l22 -54
-22 -38 c-12 -21 -31 -64 -43 -94 -11 -31 -23 -56 -27 -56 -4 0 -31 -22 -59
-49 -49 -44 -53 -51 -53 -94 0 -41 -4 -48 -39 -76 -42 -33 -51 -37 -51 -21 0
6 -22 57 -48 113 -40 84 -57 109 -92 135 -24 17 -46 30 -48 27 -3 -2 13 -24
35 -48 23 -24 44 -55 48 -68 4 -13 20 -51 35 -84 38 -83 48 -140 54 -290 3
-71 10 -161 15 -200 17 -121 16 -314 -1 -365 -9 -25 -18 -84 -22 -133 -6 -76
-12 -96 -44 -150 -20 -34 -44 -73 -54 -86 -17 -23 -80 -71 -92 -71 -9 0 6 34
30 67 27 36 31 78 8 87 -33 13 -67 -21 -172 -170 -71 -101 -136 -165 -202
-199 -44 -23 -146 -31 -193 -15 -41 13 -145 81 -193 126 -36 34 -147 94 -229
125 -30 11 -57 24 -59 28 -3 4 -1 25 4 47 5 23 10 67 11 98 2 66 0 64 120 102
94 30 132 62 145 121 9 43 8 40 1 74 -6 23 -3 26 38 37 78 21 97 103 49 201
-41 81 -83 117 -162 139 -197 56 -233 56 -427 0 -84 -24 -139 -59 -173 -110
-51 -77 -11 -195 72 -214 40 -10 63 -6 95 14 33 21 41 32 41 60 0 28 21 37 49
22 26 -13 28 -65 4 -92 -9 -10 -46 -27 -83 -38 -37 -11 -75 -29 -85 -39 -17
-19 -16 -22 5 -67 19 -39 32 -50 77 -70 29 -13 69 -24 88 -24 78 0 105 -34
105 -134 0 -90 -14 -123 -54 -130 -18 -3 -109 -44 -202 -89 -341 -168 -438
-158 -626 64 -108 128 -186 183 -233 165 -25 -9 -18 -60 16 -102 40 -50 66
-102 70 -139 6 -47 -22 -41 -56 13 -16 26 -44 66 -61 89 -40 53 -68 134 -66
196 2 95 -14 94 -21 -1 -4 -53 -3 -102 3 -117 14 -37 -4 -22 -24 19 -10 21
-16 60 -16 102 0 73 -15 206 -33 294 -19 94 -10 213 24 318 29 91 30 96 30
305 0 116 5 231 11 255 11 47 63 106 127 146 22 14 70 65 107 113 37 48 86
102 109 120 40 30 43 35 43 82 0 39 7 61 30 98 42 66 46 91 23 129 -23 38 -48
44 -206 46 -105 1 -116 -1 -255 -45 -80 -26 -155 -52 -168 -59 -36 -19 -89
-118 -63 -118 6 0 11 6 11 14 0 25 39 63 71 70 39 8 56 -5 81 -62 19 -43 19
-43 -3 -79 l-22 -35 21 11 c23 12 52 60 52 84 0 8 -11 35 -25 60 l-24 47 72
21 c40 11 93 27 118 35 33 10 72 13 135 9 83 -5 91 -7 117 -35 30 -34 34 -71
12 -110 -8 -14 -15 -45 -15 -70 0 -40 -4 -47 -35 -67 -19 -13 -63 -62 -99
-110 -43 -59 -84 -102 -125 -130 -68 -49 -105 -92 -124 -148 -17 -48 -37 -58
-37 -18 0 31 -41 115 -59 121 -15 5 -14 -21 5 -79 13 -39 14 -55 5 -75 -6 -14
-11 -33 -11 -43 0 -21 40 -61 62 -61 11 0 17 -15 22 -61 3 -34 3 -65 0 -70 -3
-6 -5 -54 -5 -109 0 -80 -5 -113 -24 -171 -39 -114 -42 -221 -11 -428 14 -96
26 -201 26 -234 0 -32 5 -68 11 -80 17 -33 81 -98 106 -107 12 -5 30 -22 40
-37 9 -15 52 -69 94 -118 65 -78 77 -97 81 -137 5 -47 61 -167 104 -225 13
-17 24 -38 24 -45 0 -17 88 -118 161 -186 32 -30 71 -81 94 -123 74 -133 217
-262 313 -282 26 -5 97 -12 157 -16 61 -4 136 -15 168 -24 85 -25 186 -32 233
-17 50 16 150 75 192 114 64 59 90 143 71 235 l-11 58 41 54 c23 31 78 85 124
120 118 93 148 134 190 259 19 58 37 117 41 131 3 15 31 50 61 77 30 28 55 55
55 61 0 6 5 11 12 11 6 0 19 6 27 14 9 7 39 21 67 30 55 18 99 57 108 96 4 14
3 54 -2 90 -9 82 2 222 24 278 13 36 15 70 11 195 -3 84 -10 184 -15 222 -6
39 -12 123 -13 189 l-3 118 52 47 c48 42 52 50 52 88 0 39 4 46 60 95 34 30
64 66 70 84 12 35 72 81 120 90 27 6 30 3 68 -72 48 -95 59 -106 137 -133 76
-27 83 -26 117 6 24 23 28 34 28 82 0 82 -15 122 -61 166 -22 22 -54 67 -70
100 -82 168 -311 455 -363 455 -8 0 -82 24 -163 53 -219 79 -247 87 -292 87
-57 0 -170 -24 -272 -58 -74 -25 -84 -31 -81 -50 3 -19 -1 -22 -31 -22 -37 0
-65 -24 -88 -75 -14 -29 -17 -30 -95 -35 -57 -4 -89 -11 -110 -25 -24 -16 -49
-20 -144 -22 -212 -5 -254 -3 -330 20 -81 23 -210 40 -253 32 -32 -6 -42 -4
-62 15 -20 18 -31 21 -60 16 -34 -7 -36 -6 -30 13 11 37 -22 80 -89 114 -35
18 -104 52 -152 77 l-89 45 -120 2 c-109 2 -127 0 -202 -26z m1315 -1497 c32
-9 67 -26 80 -37 30 -28 25 -61 -10 -65 -20 -2 -32 5 -54 33 -41 54 -83 68
-183 61 -89 -6 -101 -1 -30 13 70 14 137 12 197 -5z m79 -291 c15 -11 13 -13
-15 -13 -51 0 -65 55 -23 87 14 10 16 6 19 -25 2 -20 10 -43 19 -49z m1024
-425 c2 -39 -2 -52 -23 -75 -16 -18 -58 -38 -58 -28 0 10 35 82 48 101 22 30
32 30 33 2z m-2241 -40 c24 -33 48 -87 79 -182 63 -198 108 -262 271 -388 125
-96 170 -137 170 -155 0 -7 34 -47 76 -88 42 -41 88 -98 104 -126 15 -28 67
-92 116 -142 l88 -90 -74 7 c-113 11 -194 46 -263 114 -32 31 -70 80 -84 107
-34 67 -72 114 -170 214 -46 46 -83 88 -83 94 0 5 -14 26 -30 47 -49 62 -110
187 -116 238 -12 92 -83 299 -119 347 -40 51 -42 58 -18 53 10 -2 33 -24 53
-50z m2036 0 c-56 -79 -85 -149 -161 -390 -44 -140 -69 -176 -185 -267 -48
-38 -103 -90 -121 -116 l-33 -45 -23 47 c-12 27 -23 51 -23 54 0 4 52 46 115
94 63 48 128 99 143 114 41 38 78 106 107 196 14 44 34 91 44 105 10 14 22 36
26 50 7 23 73 127 103 163 22 25 27 21 8 -5z m-771 -204 c94 -38 105 -56 105
-169 0 -59 6 -108 16 -136 8 -24 17 -63 19 -87 2 -27 22 -83 55 -149 67 -136
83 -218 55 -298 -10 -30 -30 -65 -44 -78 -48 -43 -156 -106 -199 -116 -71 -15
-226 14 -246 48 -4 6 -16 11 -26 11 -27 0 -203 152 -251 216 -52 71 -80 134
-130 297 -33 109 -42 153 -48 252 -4 66 -3 125 1 131 5 7 52 26 106 44 86 29
106 32 175 27 91 -6 119 -24 135 -88 8 -32 6 -54 -10 -112 -31 -107 -9 -244
46 -289 34 -29 36 -21 5 35 -41 77 -47 148 -19 228 18 52 21 77 16 130 -7 74
0 85 64 113 51 22 102 19 175 -10z"/>
<path d="M2845 4407 c-72 -34 -81 -48 -67 -103 7 -24 24 -63 38 -85 16 -25 28
-62 31 -95 5 -46 8 -52 20 -42 17 14 14 86 -7 155 -15 52 0 88 50 117 53 32
193 27 279 -8 81 -33 99 -33 43 -1 -62 35 -196 75 -272 80 -54 4 -74 1 -115
-18z"/>
<path d="M738 4170 c-18 -14 -31 -40 -42 -87 -20 -77 -45 -123 -84 -152 -26
-19 -26 -20 -5 -21 26 0 79 42 97 79 8 14 19 53 26 86 8 39 21 68 36 82 13 12
24 25 24 28 0 12 -29 4 -52 -15z"/>
<path d="M3299 4167 c-47 -36 -44 -100 8 -148 23 -22 53 -76 53 -97 0 -5 -11
-21 -26 -37 -14 -15 -23 -30 -20 -33 10 -10 55 17 71 42 21 32 8 76 -40 138
-43 53 -48 107 -12 131 21 15 21 16 2 16 -11 0 -27 -5 -36 -12z"/>
<path d="M426 4098 c-8 -13 -31 -72 -52 -133 -46 -137 -64 -174 -112 -225 -42
-44 -88 -54 -113 -24 -15 18 -17 75 -5 117 7 23 5 27 -12 27 -14 0 -22 -11
-32 -44 -24 -87 28 -163 105 -153 32 4 49 15 87 58 49 54 89 128 92 166 1 14
9 24 24 28 21 5 32 25 12 25 -15 0 0 101 21 143 20 40 9 51 -15 15z"/>
<path d="M2020 3987 c-33 -73 -60 -212 -60 -302 0 -50 4 -85 10 -85 6 0 10 23
10 51 0 45 51 323 66 363 14 36 -9 13 -26 -27z"/>
<path d="M2423 4001 c-47 -17 -159 -80 -121 -68 91 30 152 31 238 5 65 -20
174 -101 288 -214 103 -103 126 -122 103 -85 -15 23 -161 181 -243 262 -113
112 -172 134 -265 100z"/>
<path d="M2930 3956 c0 -1 5 -17 11 -35 12 -34 35 -49 119 -76 71 -22 122 -72
167 -159 19 -37 36 -66 39 -64 9 10 -43 140 -69 173 -35 44 -135 112 -193 132
-24 8 -46 19 -50 24 -5 9 -24 13 -24 5z"/>
<path d="M1330 3926 c-84 -29 -230 -103 -230 -116 0 -14 -2 -14 92 21 54 20
110 33 159 36 67 5 83 3 130 -19 51 -23 55 -28 71 -79 9 -30 20 -72 24 -94 6
-32 9 -36 15 -20 23 59 -9 181 -59 226 -72 67 -114 76 -202 45z"/>
<path d="M1227 3711 c-31 -16 -66 -36 -78 -46 -11 -11 -39 -21 -62 -24 -28 -4
-42 -11 -42 -21 0 -11 12 -15 53 -15 48 1 52 -1 52 -22 0 -14 -6 -23 -15 -23
-25 0 -17 -27 17 -55 31 -26 35 -27 147 -25 64 1 128 -1 144 -5 20 -6 27 -4
27 7 0 33 -23 135 -41 184 -18 48 -23 53 -64 63 -61 15 -72 14 -138 -18z m113
-67 c0 -8 -7 -14 -15 -14 -15 0 -21 21 -9 33 10 9 24 -2 24 -19z m-90 -21 c0
-47 24 -73 66 -73 34 0 74 37 74 68 0 20 16 4 24 -25 13 -43 -79 -92 -149 -79
-70 13 -103 95 -53 130 33 23 38 20 38 -21z"/>
<path d="M944 3673 c-27 -21 -56 -47 -66 -58 -25 -30 -48 -120 -57 -221 -7
-85 -10 -94 -54 -158 -47 -69 -62 -120 -55 -186 4 -32 5 -30 13 19 6 39 20 71
52 115 67 95 83 132 83 206 0 66 17 147 39 188 6 12 32 47 57 77 24 30 43 55
41 55 -2 0 -26 -17 -53 -37z"/>
<path d="M2559 3657 c-26 -17 -41 -41 -66 -107 -18 -46 -33 -90 -33 -97 0 -9
15 -13 46 -13 25 0 60 -6 77 -14 73 -32 123 -23 182 34 17 16 49 40 73 53 l43
24 -30 6 c-16 4 -46 24 -67 46 -41 45 -124 91 -164 91 -15 0 -42 -10 -61 -23z
m89 -80 c2 -10 -3 -17 -12 -17 -10 0 -16 9 -16 21 0 24 23 21 28 -4z m80 3
c29 -27 28 -72 -2 -106 -28 -34 -75 -36 -153 -8 -42 15 -53 24 -53 41 0 32 16
36 37 10 21 -27 54 -47 78 -47 45 0 84 87 53 118 -22 22 16 14 40 -8z"/>
<path d="M1770 3516 c-87 -14 -174 -54 -236 -109 -59 -52 -60 -82 0 -34 49 41
113 71 236 112 76 25 88 27 128 16 48 -12 65 -9 35 7 -33 18 -86 20 -163 8z"/>
<path d="M2015 3353 c-46 -11 -33 -21 21 -17 51 5 66 1 112 -23 120 -65 230
-167 279 -258 18 -33 39 -71 48 -85 8 -14 30 -61 50 -105 22 -49 53 -97 80
-125 24 -25 64 -81 89 -125 29 -51 46 -72 46 -58 0 46 -44 134 -101 200 -42
48 -70 93 -96 156 -20 48 -40 90 -45 93 -5 3 -20 29 -34 57 -39 76 -78 122
-163 190 -120 95 -197 121 -286 100z"/>
<path d="M3120 3207 c0 -2 9 -39 20 -82 23 -91 27 -184 14 -302 -10 -89 -1
-99 16 -18 28 128 20 269 -20 358 -18 40 -30 58 -30 44z"/>
<path d="M1384 3064 c-21 -26 -59 -66 -84 -88 -102 -92 -115 -111 -155 -227
-45 -130 -45 -188 0 -307 29 -76 44 -92 26 -25 -6 21 -14 79 -18 129 -5 84 -3
97 26 186 34 103 53 134 119 193 24 21 53 57 64 79 11 23 32 53 46 68 14 15
23 30 20 33 -3 3 -22 -16 -44 -41z"/>
<path d="M1307 2824 c-9 -10 2 -24 19 -24 8 0 14 7 14 15 0 15 -21 21 -33 9z"/>
<path d="M2585 2700 c-3 -6 1 -13 10 -16 19 -8 30 0 20 15 -8 14 -22 14 -30 1z"/>
<path d="M1290 2635 c0 -10 7 -15 18 -13 21 4 19 22 -2 26 -10 2 -16 -3 -16
-13z"/>
<path d="M806 2546 c-14 -19 -26 -44 -26 -56 0 -21 1 -21 32 5 28 24 39 27 78
22 25 -3 53 -9 63 -12 33 -13 17 11 -28 43 -59 42 -86 41 -119 -2z"/>
<path d="M3003 2560 c-36 -21 -48 -48 -14 -30 46 24 131 1 131 -36 0 -8 5 -14
11 -14 16 0 3 59 -18 82 -21 24 -70 23 -110 -2z"/>
<path d="M2580 2555 c0 -8 7 -15 15 -15 8 0 15 7 15 15 0 8 -7 15 -15 15 -8 0
-15 -7 -15 -15z"/>
<path d="M1537 2525 c-8 -18 11 -31 25 -17 11 11 3 32 -12 32 -4 0 -10 -7 -13
-15z"/>
<path d="M2445 2470 c-4 -6 -3 -16 3 -22 6 -6 12 -6 17 2 4 6 3 16 -3 22 -6 6
-12 6 -17 -2z"/>
<path d="M2634 2429 c-10 -17 13 -36 27 -22 12 12 4 33 -11 33 -5 0 -12 -5
-16 -11z"/>
<path d="M1525 2410 c-7 -12 2 -30 16 -30 12 0 12 27 0 35 -5 3 -12 1 -16 -5z"/>
<path d="M1364 2399 c-10 -17 13 -36 27 -22 12 12 4 33 -11 33 -5 0 -12 -5
-16 -11z"/>
<path d="M2472 2324 c4 -21 22 -23 26 -1 2 10 -3 17 -13 17 -10 0 -15 -6 -13
-16z"/>
<path d="M2590 2245 c0 -8 7 -15 15 -15 8 0 15 7 15 15 0 8 -7 15 -15 15 -8 0
-15 -7 -15 -15z"/>
<path d="M3448 639 c-37 -21 -42 -51 -48 -266 -5 -194 -7 -214 -26 -240 -27
-36 -57 -41 -78 -11 -13 18 -16 49 -16 146 l0 123 -37 -3 -38 -3 -6 -96 c-6
-108 -20 -151 -56 -175 -52 -34 -132 -9 -146 46 -4 14 3 19 36 24 28 5 52 18
79 45 32 32 38 45 38 80 0 59 -25 81 -92 81 -98 0 -150 -55 -151 -160 -1 -105
52 -161 157 -168 64 -4 108 9 135 41 10 13 16 11 41 -14 38 -39 105 -41 147
-5 28 24 28 24 49 5 38 -35 124 -38 157 -4 13 12 19 12 53 -5 66 -34 188 -21
219 23 21 30 19 90 -3 111 -11 9 -47 27 -82 41 -74 29 -90 41 -90 66 0 48 99
46 110 -2 10 -43 70 -32 70 12 0 35 -57 59 -138 59 -64 0 -76 -3 -97 -25 -51
-50 -16 -114 80 -150 62 -23 85 -42 85 -70 0 -31 -23 -47 -67 -47 -52 0 -93
46 -93 103 0 38 -2 40 -27 37 -26 -3 -28 -7 -33 -58 -6 -66 -14 -80 -44 -80
-41 0 -51 25 -55 142 l-3 110 30 31 c38 40 60 84 68 135 7 48 -10 108 -36 122
-24 13 -70 12 -92 -1z m78 -64 c7 -38 -1 -92 -18 -131 -26 -56 -34 -16 -22
105 8 69 29 83 40 26z m-458 -227 c14 -14 16 -62 2 -88 -5 -10 -23 -23 -40
-29 -38 -13 -46 0 -35 57 11 59 45 88 73 60z"/>
<path d="M1620 591 c-81 -25 -137 -82 -160 -165 -8 -28 -11 -80 -8 -134 3 -75
8 -96 34 -143 76 -135 273 -170 376 -67 l40 40 21 -20 c53 -48 128 -56 185
-22 91 56 96 237 8 291 -42 26 -130 25 -173 -1 -41 -25 -50 -43 -68 -136 -17
-87 -32 -116 -78 -145 -25 -15 -45 -19 -88 -17 -72 5 -110 32 -146 106 -24 49
-28 69 -28 142 0 68 5 94 24 133 32 66 80 100 138 100 55 0 83 -26 83 -79 0
-31 3 -34 30 -34 79 0 51 109 -37 146 -35 15 -112 17 -153 5z m450 -251 c11
-11 20 -31 20 -44 0 -13 3 -37 6 -55 15 -74 -74 -28 -98 51 -8 29 -8 41 2 53
17 21 46 19 70 -5z m-21 -174 l44 -24 -26 -25 c-46 -47 -90 -14 -102 78 l-7
50 24 -27 c12 -15 43 -38 67 -52z"/>
<path d="M3206 527 c-43 -32 14 -103 59 -73 41 27 24 86 -25 86 -9 0 -24 -6
-34 -13z"/>
<path d="M2217 383 c-4 -3 -7 -71 -7 -149 0 -157 7 -178 59 -172 l26 3 5 122
c5 111 7 124 29 147 54 58 81 23 81 -105 0 -115 34 -169 107 -169 35 0 83 18
83 32 0 5 19 -1 42 -13 33 -17 54 -20 105 -17 74 5 113 29 127 77 14 47 -15
79 -104 117 -77 32 -97 50 -87 77 16 41 112 25 112 -18 0 -23 30 -32 50 -15
25 20 17 49 -17 70 -62 38 -204 21 -222 -25 -19 -51 12 -94 91 -125 71 -28 93
-46 93 -75 0 -31 -23 -47 -66 -47 -51 0 -85 35 -91 96 -5 44 -8 47 -32 44 -24
-3 -26 -7 -27 -53 -1 -61 -11 -85 -34 -85 -32 0 -44 29 -47 118 -5 111 -9 127
-35 152 -25 23 -104 28 -140 9 -14 -8 -23 -8 -31 0 -12 12 -60 15 -70 4z"/>
</g>
</svg>
