<?xml version="1.0" encoding="utf-8"?>
<!-- Generator: Adobe Illustrator 26.0.0, SVG Export Plug-In . SVG Version: 6.00 Build 0)  -->
<svg version="1.1" xmlns="http://www.w3.org/2000/svg" xmlns:xlink="http://www.w3.org/1999/xlink" x="0px" y="0px"
	 viewBox="0 0 160 70" style="enable-background:new 0 0 160 70;" xml:space="preserve">
<style type="text/css">
	.st0{display:none;fill:none;stroke:#000000;stroke-miterlimit:10;}
	.st1{font-family:'Archistico-Normal';}
	.st2{font-size:17.6077px;}
	.st3{display:none;}
	.st4{display:inline;fill:none;stroke:#000000;stroke-miterlimit:10;}
	.st5{display:inline;}
	.st6{fill-rule:evenodd;clip-rule:evenodd;}
</style>
<g id="chanel">
	<rect x="-0.1" y="0.5" class="st0" width="160" height="70.3"/>
	<text transform="matrix(1 0 0 1 39.8923 40.7628)" class="st1 st2">CHANEL</text>
</g>
<g id="puma" class="st3">
	<rect x="0.3" y="0.1" class="st4" width="160" height="70.3"/>
	<g class="st5">
		<path class="st6" d="M83.4,10.7c-0.3,0-0.5,1-1,1.5c-0.4,0.4-0.8,0.3-1.1,0.8c-0.1,0.2-0.1,0.5-0.2,0.7c-0.2,0.5-0.9,0.6-0.9,1.2
			c0,0.6,0.6,0.8,1.1,1.2c0.4,0.4,0.5,0.6,1,0.8c0.4,0.1,1.1-0.3,1.6-0.2c0.5,0.1,0.9,0.2,1,0.7c0.1,0.4,0,1.1-0.6,1.1
			c-0.2,0-1-0.3-2-0.2c-1.2,0.1-2.6,0.5-2.8,1.9c-0.1,0.8,0.9,1.7,1.8,1.5c0.6-0.1,0.3-0.9,0.7-1.2c0.5-0.5,3,1.6,5.4,1.6
			c1,0,1.7-0.3,2.5-1c0.1-0.1,0.2-0.2,0.3-0.2c0.1,0,0.3,0.1,0.3,0.1c1.9,1.5,3.4,4.6,10.4,4.7c1,0,2.1,0.5,3,1.3
			c0.8,0.8,1.3,1.9,1.8,3.1c0.7,1.8,2,3.5,3.9,5.5c0.1,0.1,1.7,1.3,1.8,1.4c0,0,0.1,0.3,0.1,0.4c0,1.2-0.2,4.6,2.3,4.7
			c0.6,0,0.5-0.4,0.5-0.7c0-0.6-0.1-1.2,0.2-1.8c0.4-0.8-0.9-1.2-0.9-3c0-1.3-1.1-1.1-1.7-2.1c-0.3-0.6-0.6-0.9-0.6-1.6
			c0.1-4.1-0.9-6.8-1.4-7.4c-0.4-0.5-0.7-0.7-0.4-0.9c2.1-1.4,2.6-2.7,2.6-2.7c1.1-2.6,2.1-5.1,3.5-6.1c0.3-0.2,1-0.8,1.4-1
			c1.3-0.6,2-1,2.4-1.4c0.6-0.6,1.1-1.8,0.5-2.5c-0.7-0.9-1.9-0.2-2.5,0.1c-3.9,2.3-4.5,6.4-5.8,8.7c-1.1,1.9-2.8,3.2-4.4,3.3
			c-1.2,0.1-2.4-0.1-3.7-0.7c-3.1-1.3-4.7-3.1-5.1-3.4c-0.8-0.6-7.2-6.9-12.3-7.1c0,0-0.6-1.3-0.8-1.3c-0.4,0-0.8,0.8-1,0.9
			C84.1,11.6,83.7,10.6,83.4,10.7L83.4,10.7z"/>
		<path class="st6" d="M60.7,48c-0.5,0-0.9-0.4-0.9-0.9l0-16.1h-5.3v17.7c0,0.9,0.7,1.6,1.6,1.6h9.3c0.9,0,1.6-0.7,1.6-1.6V31h-5.3
			l0,16.1C61.6,47.6,61.2,48,60.7,48L60.7,48z"/>
		<path class="st6" d="M78.5,31h-8c-1,0-1.7,0.8-1.7,1.7v17.6H74V34.2c0-0.5,0.4-0.9,0.9-0.9c0.5,0,0.9,0.4,0.9,0.9v16.1h5.3V34.2
			c0-0.5,0.4-0.9,0.9-0.9c0.5,0,0.9,0.4,0.9,0.9v16.1h5.3V32.7c0-1-0.8-1.7-1.7-1.7H78.5L78.5,31z"/>
		<path class="st6" d="M51,45.5h-5.4v4.9h-5.3V31H51c1,0,1.7,0.8,1.7,1.7v11C52.7,44.7,51.9,45.5,51,45.5L51,45.5z M47.4,34.2
			c0-0.5-0.4-0.9-0.9-0.9h-0.9v9.8h0.9c0.5,0,0.9-0.4,0.9-0.9V34.2L47.4,34.2z"/>
		<path class="st6" d="M108.8,48c0,1.3-1.1,2.4-2.4,2.4c-1.3,0-2.4-1.1-2.4-2.4c0-1.3,1.1-2.4,2.3-2.4
			C107.8,45.7,108.8,46.7,108.8,48L108.8,48z M106.4,46c-1.1,0-2,0.9-2,2c0,1.1,0.9,2,2,2c1.1,0,2-0.9,2-2
			C108.4,46.9,107.5,46,106.4,46L106.4,46L106.4,46z"/>
		<path class="st6" d="M107.6,49.4h-0.6l-0.8-1.1v1.1h-0.5v-2.7h0.5c0.7,0,1.1,0.3,1.1,0.8c0,0.4-0.2,0.7-0.6,0.8l0,0L107.6,49.4
			L107.6,49.4z M106.2,47.9c0.4,0,0.6-0.1,0.6-0.4c0-0.2-0.2-0.4-0.5-0.4h-0.1L106.2,47.9L106.2,47.9L106.2,47.9z"/>
		<path class="st6" d="M97.1,50.3v-4.9h-1.8v4.9H90V32.7c0-1,0.8-1.7,1.7-1.7h9c1,0,1.7,0.8,1.7,1.7v17.6H97.1L97.1,50.3z
			 M97.1,43.1v-8.9c0-0.5-0.4-0.9-0.9-0.9c-0.5,0-0.9,0.4-0.9,0.9v8.9H97.1L97.1,43.1z"/>
		<path class="st6" d="M40.5,60.1v-5.3h0.6v0.5c0.1-0.2,0.3-0.3,0.5-0.4c0.2-0.1,0.4-0.1,0.6-0.1c0.3,0,0.6,0.1,0.9,0.3
			c0.3,0.2,0.4,0.4,0.6,0.7c0.1,0.3,0.2,0.6,0.2,1c0,0.4-0.1,0.7-0.2,1.1c-0.1,0.3-0.3,0.6-0.6,0.7c-0.3,0.2-0.6,0.3-0.8,0.3
			c-0.2,0-0.4,0-0.6-0.1c-0.2-0.1-0.3-0.2-0.4-0.3v1.9H40.5L40.5,60.1z M41.1,56.7c0,0.5,0.1,0.9,0.3,1.1c0.2,0.2,0.4,0.4,0.7,0.4
			c0.3,0,0.5-0.1,0.7-0.4c0.2-0.2,0.3-0.6,0.3-1.1c0-0.5-0.1-0.9-0.3-1.1c-0.2-0.2-0.4-0.4-0.7-0.4c-0.3,0-0.5,0.1-0.7,0.4
			C41.2,55.8,41.1,56.2,41.1,56.7L41.1,56.7z"/>
		<path class="st6" d="M50.8,58.6V58c-0.3,0.4-0.7,0.6-1.2,0.6c-0.2,0-0.4,0-0.6-0.1c-0.2-0.1-0.3-0.2-0.4-0.3
			c-0.1-0.1-0.2-0.3-0.2-0.5c0-0.1,0-0.3,0-0.6v-2.4h0.6v2.1c0,0.3,0,0.6,0,0.7c0,0.2,0.1,0.3,0.3,0.4c0.1,0.1,0.3,0.1,0.5,0.1
			c0.2,0,0.4,0,0.5-0.1c0.2-0.1,0.3-0.2,0.4-0.4c0.1-0.2,0.1-0.4,0.1-0.8v-2.1h0.6v3.8H50.8L50.8,58.6z"/>
		<path class="st6" d="M56.1,58.6v-3.8h0.6v0.5c0.1-0.2,0.3-0.3,0.5-0.5c0.2-0.1,0.4-0.2,0.7-0.2c0.3,0,0.5,0.1,0.7,0.2
			c0.2,0.1,0.3,0.3,0.4,0.5c0.3-0.4,0.7-0.7,1.2-0.7c0.4,0,0.7,0.1,0.9,0.3c0.2,0.2,0.3,0.5,0.3,1v2.6h-0.6v-2.4
			c0-0.3,0-0.4-0.1-0.6c0-0.1-0.1-0.2-0.2-0.3c-0.1-0.1-0.2-0.1-0.4-0.1c-0.3,0-0.5,0.1-0.7,0.3C59.1,55.7,59,56,59,56.4v2.2h-0.6
			v-2.5c0-0.3-0.1-0.5-0.2-0.7c-0.1-0.1-0.3-0.2-0.5-0.2c-0.2,0-0.4,0-0.5,0.1c-0.2,0.1-0.3,0.2-0.3,0.4c-0.1,0.2-0.1,0.5-0.1,0.8v2
			H56.1L56.1,58.6z"/>
		<path class="st6" d="M68.5,58.1c-0.2,0.2-0.5,0.3-0.7,0.4c-0.2,0.1-0.5,0.1-0.7,0.1c-0.4,0-0.7-0.1-1-0.3
			c-0.2-0.2-0.3-0.5-0.3-0.8c0-0.2,0-0.4,0.1-0.5c0.1-0.2,0.2-0.3,0.3-0.4c0.1-0.1,0.3-0.2,0.5-0.2c0.1,0,0.3-0.1,0.6-0.1
			c0.5-0.1,0.9-0.1,1.2-0.2c0-0.1,0-0.1,0-0.2c0-0.3-0.1-0.5-0.2-0.6c-0.2-0.1-0.4-0.2-0.7-0.2c-0.3,0-0.5,0.1-0.7,0.2
			c-0.1,0.1-0.3,0.3-0.3,0.6l-0.6-0.1c0.1-0.3,0.2-0.5,0.3-0.7c0.1-0.2,0.3-0.3,0.6-0.4c0.3-0.1,0.5-0.1,0.9-0.1
			c0.3,0,0.6,0,0.8,0.1c0.2,0.1,0.4,0.2,0.5,0.3c0.1,0.1,0.2,0.3,0.2,0.4c0,0.1,0,0.3,0,0.6V57c0,0.6,0,1,0,1.1
			c0,0.2,0.1,0.3,0.2,0.5h-0.7C68.5,58.5,68.5,58.3,68.5,58.1L68.5,58.1z M68.4,56.7c-0.2,0.1-0.6,0.2-1.1,0.2
			c-0.3,0-0.5,0.1-0.6,0.1c-0.1,0-0.2,0.1-0.3,0.2c-0.1,0.1-0.1,0.2-0.1,0.3c0,0.2,0.1,0.3,0.2,0.4c0.1,0.1,0.3,0.2,0.6,0.2
			c0.3,0,0.5-0.1,0.7-0.2c0.2-0.1,0.3-0.3,0.4-0.5c0.1-0.1,0.1-0.4,0.1-0.6V56.7L68.4,56.7z"/>
		<polygon class="st6" points="74,58.6 74,57.9 74.7,57.9 74.7,58.6 74,58.6 		"/>
		<path class="st6" d="M82,57.2l0.6,0.1c-0.1,0.4-0.2,0.8-0.5,1c-0.3,0.2-0.6,0.4-1.1,0.4c-0.5,0-0.9-0.2-1.3-0.5
			c-0.3-0.3-0.5-0.8-0.5-1.5c0-0.4,0.1-0.8,0.2-1.1c0.1-0.3,0.3-0.5,0.6-0.7c0.3-0.2,0.6-0.2,0.9-0.2c0.4,0,0.8,0.1,1,0.3
			c0.3,0.2,0.4,0.5,0.5,0.9L82,56c-0.1-0.3-0.2-0.5-0.3-0.6c-0.2-0.1-0.3-0.2-0.6-0.2c-0.3,0-0.6,0.1-0.8,0.4
			c-0.2,0.2-0.3,0.6-0.3,1.1c0,0.5,0.1,0.9,0.3,1.1c0.2,0.2,0.5,0.4,0.8,0.4c0.3,0,0.5-0.1,0.6-0.2C81.9,57.8,82,57.5,82,57.2
			L82,57.2z"/>
		<path class="st6" d="M86.7,56.7c0-0.7,0.2-1.2,0.6-1.6c0.3-0.3,0.7-0.4,1.2-0.4c0.5,0,1,0.2,1.3,0.5c0.3,0.3,0.5,0.8,0.5,1.4
			c0,0.5-0.1,0.9-0.2,1.2c-0.1,0.3-0.4,0.5-0.6,0.7c-0.3,0.2-0.6,0.2-0.9,0.2c-0.5,0-1-0.2-1.3-0.5C86.8,57.8,86.7,57.3,86.7,56.7
			L86.7,56.7z M87.3,56.7c0,0.5,0.1,0.9,0.3,1.1c0.2,0.2,0.5,0.4,0.8,0.4c0.3,0,0.6-0.1,0.8-0.4c0.2-0.2,0.3-0.6,0.3-1.1
			c0-0.5-0.1-0.8-0.3-1.1s-0.5-0.4-0.8-0.4c-0.3,0-0.6,0.1-0.8,0.4C87.5,55.8,87.3,56.2,87.3,56.7L87.3,56.7z"/>
		<path class="st6" d="M94.7,58.6v-3.8h0.6v0.5c0.1-0.2,0.3-0.3,0.5-0.5c0.2-0.1,0.4-0.2,0.7-0.2c0.3,0,0.5,0.1,0.7,0.2
			c0.2,0.1,0.3,0.3,0.4,0.5c0.3-0.4,0.7-0.7,1.2-0.7c0.4,0,0.7,0.1,0.9,0.3c0.2,0.2,0.3,0.5,0.3,1v2.6h-0.6v-2.4
			c0-0.3,0-0.4-0.1-0.6c0-0.1-0.1-0.2-0.2-0.3c-0.1-0.1-0.2-0.1-0.4-0.1c-0.3,0-0.5,0.1-0.7,0.3c-0.2,0.2-0.3,0.5-0.3,0.9v2.2H97
			v-2.5c0-0.3-0.1-0.5-0.2-0.7c-0.1-0.1-0.3-0.2-0.5-0.2c-0.2,0-0.4,0-0.5,0.1c-0.2,0.1-0.3,0.2-0.3,0.4c-0.1,0.2-0.1,0.5-0.1,0.8v2
			H94.7L94.7,58.6z"/>
	</g>
</g>
<g id="Calque_3">
</g>
<g id="Calque_4">
</g>
<g id="Calque_5">
</g>
<g id="Calque_6">
</g>
<g id="Calque_7">
</g>
<g id="Calque_8">
</g>
<g id="Calque_9">
</g>
<g id="Calque_10">
</g>
<g id="Calque_11">
</g>
<g id="Calque_12">
</g>
</svg>
