<?xml version="1.0" encoding="utf-8"?>
<!-- Generator: Adobe Illustrator 26.0.0, SVG Export Plug-In . SVG Version: 6.00 Build 0)  -->
<svg version="1.1" xmlns="http://www.w3.org/2000/svg" xmlns:xlink="http://www.w3.org/1999/xlink" x="0px" y="0px"
	 viewBox="0 0 160 70" style="enable-background:new 0 0 160 70;" xml:space="preserve">
<style type="text/css">
	.st0{display:none;}
	.st1{fill:none;stroke:#000000;stroke-miterlimit:10;}
	.st2{display:inline;}
	.st3{font-family:'Archistico-Normal';}
	.st4{font-size:17.6077px;}
	.st5{display:inline;fill:none;stroke:#000000;stroke-miterlimit:10;}
	.st6{fill-rule:evenodd;clip-rule:evenodd;}
	.st7{fill:#020203;}
	.st8{display:inline;fill-rule:evenodd;clip-rule:evenodd;}
	.st9{display:none;fill:none;stroke:#000000;stroke-miterlimit:10;}
	.st10{fill:#1E1E1C;}
</style>
<g id="chanel" class="st0">
	<rect x="-0.1" y="0.5" class="st1" width="160" height="70.3"/>
	<text transform="matrix(1 0 0 1 39.8923 40.7628)" class="st2 st3 st4">CHANEL</text>
</g>
<g id="puma" class="st0">
	<rect x="0.3" y="0.1" class="st5" width="160" height="70.3"/>
	<g class="st2">
		<path class="st6" d="M83.4,10.7c-0.3,0-0.5,1-1,1.5c-0.4,0.4-0.8,0.3-1.1,0.8c-0.1,0.2-0.1,0.5-0.2,0.7c-0.2,0.5-0.9,0.6-0.9,1.2
			c0,0.6,0.6,0.8,1.1,1.2c0.4,0.4,0.5,0.6,1,0.8c0.4,0.1,1.1-0.3,1.6-0.2c0.5,0.1,0.9,0.2,1,0.7c0.1,0.4,0,1.1-0.6,1.1
			c-0.2,0-1-0.3-2-0.2c-1.2,0.1-2.6,0.5-2.8,1.9c-0.1,0.8,0.9,1.7,1.8,1.5c0.6-0.1,0.3-0.9,0.7-1.2c0.5-0.5,3,1.6,5.4,1.6
			c1,0,1.7-0.3,2.5-1c0.1-0.1,0.2-0.2,0.3-0.2c0.1,0,0.3,0.1,0.3,0.1c1.9,1.5,3.4,4.6,10.4,4.7c1,0,2.1,0.5,3,1.3
			c0.8,0.8,1.3,1.9,1.8,3.1c0.7,1.8,2,3.5,3.9,5.5c0.1,0.1,1.7,1.3,1.8,1.4c0,0,0.1,0.3,0.1,0.4c0,1.2-0.2,4.6,2.3,4.7
			c0.6,0,0.5-0.4,0.5-0.7c0-0.6-0.1-1.2,0.2-1.8c0.4-0.8-0.9-1.2-0.9-3c0-1.3-1.1-1.1-1.7-2.1c-0.3-0.6-0.6-0.9-0.6-1.6
			c0.1-4.1-0.9-6.8-1.4-7.4c-0.4-0.5-0.7-0.7-0.4-0.9c2.1-1.4,2.6-2.7,2.6-2.7c1.1-2.6,2.1-5.1,3.5-6.1c0.3-0.2,1-0.8,1.4-1
			c1.3-0.6,2-1,2.4-1.4c0.6-0.6,1.1-1.8,0.5-2.5c-0.7-0.9-1.9-0.2-2.5,0.1c-3.9,2.3-4.5,6.4-5.8,8.7c-1.1,1.9-2.8,3.2-4.4,3.3
			c-1.2,0.1-2.4-0.1-3.7-0.7c-3.1-1.3-4.7-3.1-5.1-3.4c-0.8-0.6-7.2-6.9-12.3-7.1c0,0-0.6-1.3-0.8-1.3c-0.4,0-0.8,0.8-1,0.9
			C84.1,11.6,83.7,10.6,83.4,10.7L83.4,10.7z"/>
		<path class="st6" d="M60.7,48c-0.5,0-0.9-0.4-0.9-0.9l0-16.1h-5.3v17.7c0,0.9,0.7,1.6,1.6,1.6h9.3c0.9,0,1.6-0.7,1.6-1.6V31h-5.3
			l0,16.1C61.6,47.6,61.2,48,60.7,48L60.7,48z"/>
		<path class="st6" d="M78.5,31h-8c-1,0-1.7,0.8-1.7,1.7v17.6H74V34.2c0-0.5,0.4-0.9,0.9-0.9c0.5,0,0.9,0.4,0.9,0.9v16.1h5.3V34.2
			c0-0.5,0.4-0.9,0.9-0.9c0.5,0,0.9,0.4,0.9,0.9v16.1h5.3V32.7c0-1-0.8-1.7-1.7-1.7H78.5L78.5,31z"/>
		<path class="st6" d="M51,45.5h-5.4v4.9h-5.3V31H51c1,0,1.7,0.8,1.7,1.7v11C52.7,44.7,51.9,45.5,51,45.5L51,45.5z M47.4,34.2
			c0-0.5-0.4-0.9-0.9-0.9h-0.9v9.8h0.9c0.5,0,0.9-0.4,0.9-0.9V34.2L47.4,34.2z"/>
		<path class="st6" d="M108.8,48c0,1.3-1.1,2.4-2.4,2.4c-1.3,0-2.4-1.1-2.4-2.4c0-1.3,1.1-2.4,2.3-2.4
			C107.8,45.7,108.8,46.7,108.8,48L108.8,48z M106.4,46c-1.1,0-2,0.9-2,2c0,1.1,0.9,2,2,2c1.1,0,2-0.9,2-2
			C108.4,46.9,107.5,46,106.4,46L106.4,46L106.4,46z"/>
		<path class="st6" d="M107.6,49.4h-0.6l-0.8-1.1v1.1h-0.5v-2.7h0.5c0.7,0,1.1,0.3,1.1,0.8c0,0.4-0.2,0.7-0.6,0.8l0,0L107.6,49.4
			L107.6,49.4z M106.2,47.9c0.4,0,0.6-0.1,0.6-0.4c0-0.2-0.2-0.4-0.5-0.4h-0.1L106.2,47.9L106.2,47.9L106.2,47.9z"/>
		<path class="st6" d="M97.1,50.3v-4.9h-1.8v4.9H90V32.7c0-1,0.8-1.7,1.7-1.7h9c1,0,1.7,0.8,1.7,1.7v17.6H97.1L97.1,50.3z
			 M97.1,43.1v-8.9c0-0.5-0.4-0.9-0.9-0.9c-0.5,0-0.9,0.4-0.9,0.9v8.9H97.1L97.1,43.1z"/>
		<path class="st6" d="M40.5,60.1v-5.3h0.6v0.5c0.1-0.2,0.3-0.3,0.5-0.4c0.2-0.1,0.4-0.1,0.6-0.1c0.3,0,0.6,0.1,0.9,0.3
			c0.3,0.2,0.4,0.4,0.6,0.7c0.1,0.3,0.2,0.6,0.2,1c0,0.4-0.1,0.7-0.2,1.1c-0.1,0.3-0.3,0.6-0.6,0.7c-0.3,0.2-0.6,0.3-0.8,0.3
			c-0.2,0-0.4,0-0.6-0.1c-0.2-0.1-0.3-0.2-0.4-0.3v1.9H40.5L40.5,60.1z M41.1,56.7c0,0.5,0.1,0.9,0.3,1.1c0.2,0.2,0.4,0.4,0.7,0.4
			c0.3,0,0.5-0.1,0.7-0.4c0.2-0.2,0.3-0.6,0.3-1.1c0-0.5-0.1-0.9-0.3-1.1c-0.2-0.2-0.4-0.4-0.7-0.4c-0.3,0-0.5,0.1-0.7,0.4
			C41.2,55.8,41.1,56.2,41.1,56.7L41.1,56.7z"/>
		<path class="st6" d="M50.8,58.6V58c-0.3,0.4-0.7,0.6-1.2,0.6c-0.2,0-0.4,0-0.6-0.1c-0.2-0.1-0.3-0.2-0.4-0.3
			c-0.1-0.1-0.2-0.3-0.2-0.5c0-0.1,0-0.3,0-0.6v-2.4h0.6v2.1c0,0.3,0,0.6,0,0.7c0,0.2,0.1,0.3,0.3,0.4c0.1,0.1,0.3,0.1,0.5,0.1
			c0.2,0,0.4,0,0.5-0.1c0.2-0.1,0.3-0.2,0.4-0.4c0.1-0.2,0.1-0.4,0.1-0.8v-2.1h0.6v3.8H50.8L50.8,58.6z"/>
		<path class="st6" d="M56.1,58.6v-3.8h0.6v0.5c0.1-0.2,0.3-0.3,0.5-0.5c0.2-0.1,0.4-0.2,0.7-0.2c0.3,0,0.5,0.1,0.7,0.2
			c0.2,0.1,0.3,0.3,0.4,0.5c0.3-0.4,0.7-0.7,1.2-0.7c0.4,0,0.7,0.1,0.9,0.3c0.2,0.2,0.3,0.5,0.3,1v2.6h-0.6v-2.4
			c0-0.3,0-0.4-0.1-0.6c0-0.1-0.1-0.2-0.2-0.3c-0.1-0.1-0.2-0.1-0.4-0.1c-0.3,0-0.5,0.1-0.7,0.3C59.1,55.7,59,56,59,56.4v2.2h-0.6
			v-2.5c0-0.3-0.1-0.5-0.2-0.7c-0.1-0.1-0.3-0.2-0.5-0.2c-0.2,0-0.4,0-0.5,0.1c-0.2,0.1-0.3,0.2-0.3,0.4c-0.1,0.2-0.1,0.5-0.1,0.8v2
			H56.1L56.1,58.6z"/>
		<path class="st6" d="M68.5,58.1c-0.2,0.2-0.5,0.3-0.7,0.4c-0.2,0.1-0.5,0.1-0.7,0.1c-0.4,0-0.7-0.1-1-0.3
			c-0.2-0.2-0.3-0.5-0.3-0.8c0-0.2,0-0.4,0.1-0.5c0.1-0.2,0.2-0.3,0.3-0.4c0.1-0.1,0.3-0.2,0.5-0.2c0.1,0,0.3-0.1,0.6-0.1
			c0.5-0.1,0.9-0.1,1.2-0.2c0-0.1,0-0.1,0-0.2c0-0.3-0.1-0.5-0.2-0.6c-0.2-0.1-0.4-0.2-0.7-0.2c-0.3,0-0.5,0.1-0.7,0.2
			c-0.1,0.1-0.3,0.3-0.3,0.6l-0.6-0.1c0.1-0.3,0.2-0.5,0.3-0.7c0.1-0.2,0.3-0.3,0.6-0.4c0.3-0.1,0.5-0.1,0.9-0.1
			c0.3,0,0.6,0,0.8,0.1c0.2,0.1,0.4,0.2,0.5,0.3c0.1,0.1,0.2,0.3,0.2,0.4c0,0.1,0,0.3,0,0.6V57c0,0.6,0,1,0,1.1
			c0,0.2,0.1,0.3,0.2,0.5h-0.7C68.5,58.5,68.5,58.3,68.5,58.1L68.5,58.1z M68.4,56.7c-0.2,0.1-0.6,0.2-1.1,0.2
			c-0.3,0-0.5,0.1-0.6,0.1c-0.1,0-0.2,0.1-0.3,0.2c-0.1,0.1-0.1,0.2-0.1,0.3c0,0.2,0.1,0.3,0.2,0.4c0.1,0.1,0.3,0.2,0.6,0.2
			c0.3,0,0.5-0.1,0.7-0.2c0.2-0.1,0.3-0.3,0.4-0.5c0.1-0.1,0.1-0.4,0.1-0.6V56.7L68.4,56.7z"/>
		<polygon class="st6" points="74,58.6 74,57.9 74.7,57.9 74.7,58.6 74,58.6 		"/>
		<path class="st6" d="M82,57.2l0.6,0.1c-0.1,0.4-0.2,0.8-0.5,1c-0.3,0.2-0.6,0.4-1.1,0.4c-0.5,0-0.9-0.2-1.3-0.5
			c-0.3-0.3-0.5-0.8-0.5-1.5c0-0.4,0.1-0.8,0.2-1.1c0.1-0.3,0.3-0.5,0.6-0.7c0.3-0.2,0.6-0.2,0.9-0.2c0.4,0,0.8,0.1,1,0.3
			c0.3,0.2,0.4,0.5,0.5,0.9L82,56c-0.1-0.3-0.2-0.5-0.3-0.6c-0.2-0.1-0.3-0.2-0.6-0.2c-0.3,0-0.6,0.1-0.8,0.4
			c-0.2,0.2-0.3,0.6-0.3,1.1c0,0.5,0.1,0.9,0.3,1.1c0.2,0.2,0.5,0.4,0.8,0.4c0.3,0,0.5-0.1,0.6-0.2C81.9,57.8,82,57.5,82,57.2
			L82,57.2z"/>
		<path class="st6" d="M86.7,56.7c0-0.7,0.2-1.2,0.6-1.6c0.3-0.3,0.7-0.4,1.2-0.4c0.5,0,1,0.2,1.3,0.5c0.3,0.3,0.5,0.8,0.5,1.4
			c0,0.5-0.1,0.9-0.2,1.2c-0.1,0.3-0.4,0.5-0.6,0.7c-0.3,0.2-0.6,0.2-0.9,0.2c-0.5,0-1-0.2-1.3-0.5C86.8,57.8,86.7,57.3,86.7,56.7
			L86.7,56.7z M87.3,56.7c0,0.5,0.1,0.9,0.3,1.1c0.2,0.2,0.5,0.4,0.8,0.4c0.3,0,0.6-0.1,0.8-0.4c0.2-0.2,0.3-0.6,0.3-1.1
			c0-0.5-0.1-0.8-0.3-1.1s-0.5-0.4-0.8-0.4c-0.3,0-0.6,0.1-0.8,0.4C87.5,55.8,87.3,56.2,87.3,56.7L87.3,56.7z"/>
		<path class="st6" d="M94.7,58.6v-3.8h0.6v0.5c0.1-0.2,0.3-0.3,0.5-0.5c0.2-0.1,0.4-0.2,0.7-0.2c0.3,0,0.5,0.1,0.7,0.2
			c0.2,0.1,0.3,0.3,0.4,0.5c0.3-0.4,0.7-0.7,1.2-0.7c0.4,0,0.7,0.1,0.9,0.3c0.2,0.2,0.3,0.5,0.3,1v2.6h-0.6v-2.4
			c0-0.3,0-0.4-0.1-0.6c0-0.1-0.1-0.2-0.2-0.3c-0.1-0.1-0.2-0.1-0.4-0.1c-0.3,0-0.5,0.1-0.7,0.3c-0.2,0.2-0.3,0.5-0.3,0.9v2.2H97
			v-2.5c0-0.3-0.1-0.5-0.2-0.7c-0.1-0.1-0.3-0.2-0.5-0.2c-0.2,0-0.4,0-0.5,0.1c-0.2,0.1-0.3,0.2-0.3,0.4c-0.1,0.2-0.1,0.5-0.1,0.8v2
			H94.7L94.7,58.6z"/>
	</g>
</g>
<g id="Calque_3" class="st0">
	<rect x="-0.3" y="-0.6" class="st1" width="160" height="70.3"/>
	<g class="st2">
		<g>
			<polygon class="st7" points="39.7,47.7 39.7,36.6 41.3,36.6 41.3,41 49,41 49,36.6 50.6,36.6 50.6,47.7 49,47.7 49,42.3 
				41.3,42.3 41.3,47.7 			"/>
			<path class="st7" d="M67.5,46.7c1.5,0,2.7-0.4,3.6-1.3c0.9-0.9,1.4-1.9,1.4-3.2s-0.5-2.4-1.4-3.2s-2.2-1.3-3.6-1.3
				c-1.4,0-2.6,0.4-3.6,1.3c-0.9,0.9-1.4,1.9-1.4,3.2s0.5,2.4,1.4,3.2C64.9,46.3,66,46.7,67.5,46.7z M67.5,48c-2,0-3.6-0.6-4.8-1.7
				c-1.3-1.1-1.9-2.5-1.9-4.2c0-1.7,0.7-3.1,1.9-4.2c1.3-1.1,2.9-1.7,4.8-1.7c2,0,3.6,0.6,4.9,1.7c1.3,1.1,1.9,2.5,1.9,4.2
				c0,1.7-0.7,3-1.9,4.2C71.1,47.4,69.5,48,67.5,48z"/>
			<polygon class="st7" points="84.3,47.7 84.3,36.6 85.8,36.6 91.1,43.4 96.4,36.6 97.9,36.6 97.9,47.7 96.2,47.7 96.2,39 
				91.1,45.6 85.9,39 85.9,47.7 			"/>
			<polygon class="st7" points="108.9,47.7 108.9,36.6 119.2,36.6 119.2,37.9 110.5,37.9 110.5,41.1 115.7,41.1 115.7,42.4 
				110.5,42.4 110.5,46.4 119.7,46.4 119.7,47.7 			"/>
		</g>
		<g>
			<polygon class="st7" points="39.7,32.5 48.7,22.5 40.4,22.5 40.4,21.1 51.7,21.1 42.9,31.2 51.7,31.2 51.7,32.5 			"/>
			<path class="st7" d="M64.1,28.1H70l-3-5.1L64.1,28.1z M59.8,32.5l6.6-11.4h1.4l6.7,11.3h-1.8l-1.8-3h-7.5l-1.8,3L59.8,32.5
				L59.8,32.5z"/>
			<path class="st7" d="M85.4,26.2h5.9c0.8,0,1.5-0.2,1.9-0.5c0.5-0.3,0.7-0.7,0.7-1.4c0-0.6-0.2-1.1-0.7-1.4
				c-0.5-0.3-1-0.5-1.8-0.5h-6V26.2z M83.8,32.5V21.1h7.7c1.3,0,2.3,0.3,3.1,0.8s1.1,1.3,1.1,2.3c0,0.8-0.3,1.5-0.8,2.1
				c-0.6,0.6-1.3,0.9-2.3,1.1l3.4,5h-1.8l-3.4-5h-5.2v5H83.8z"/>
			<path class="st7" d="M107.6,28.1h5.9l-2.9-5.1L107.6,28.1z M103.3,32.5l6.6-11.3h1.4l6.6,11.3h-1.8l-1.8-3h-7.4l-1.8,3H103.3z"/>
		</g>
	</g>
</g>
<g id="Calque_4" class="st0">
	<rect x="-0.3" y="-0.6" class="st1" width="160" height="70.3"/>
	<path class="st8" d="M96.3,52.1c-1.2-0.2-2.2-0.2-2.2-0.9c0-0.2,0.1-0.5,0.4-0.7c0.2-0.2,0.7-0.2,1.1-0.2c0.4,0,0.7,0.2,1,0.4
		c0.1,0.2,0.3,0.4,0.3,0.7l0,0h1.9l0,0c0-0.7-0.3-1.4-0.9-1.8c-0.5-0.4-1.2-0.9-2.1-0.9c-0.9,0-1.8,0-2.4,0.5
		c-0.6,0.4-1.1,1.2-1.1,1.8c0,0.4,0,0.8,0.1,1.1c0.2,0.3,0.6,0.8,1,1c0.5,0.3,1.7,0.4,2.3,0.6c0.5,0.1,1.2,0.2,1.3,0.7
		c0.1,0.3,0,0.6-0.3,0.8c-0.3,0.2-0.7,0.3-1.1,0.3c-0.5,0-0.9-0.1-1.2-0.4c-0.2-0.3-0.3-0.5-0.5-0.9l0,0H92l0,0
		c0,0.9,0.5,1.7,1.1,2.2c0.6,0.5,1.4,0.7,2.4,0.7c1,0,1.9-0.2,2.5-0.6c0.6-0.5,1-1.3,1-2c0-0.6-0.2-1.1-0.4-1.4
		C98,52.4,97,52.2,96.3,52.1L96.3,52.1L96.3,52.1L96.3,52.1z"/>
	<polygon class="st8" points="71.7,57 73.6,57 73.6,49 71.7,49 71.7,57 71.7,57 	"/>
	<polygon class="st8" points="71.7,48.5 73.6,48.5 73.6,46.6 71.7,46.6 71.7,48.5 71.7,48.5 	"/>
	<path class="st8" d="M68.9,50.1c-0.7-0.6-1.6-0.9-2.6-1c0,0-0.1,0-0.1,0c-2.2,0-4,1.8-4,4c0,2.2,1.8,4,4,4c0,0,0.1,0,0.1,0
		c1,0,1.9-0.4,2.6-1.1l0,0l0,1h1.8V46.6h-1.8V50.1L68.9,50.1L68.9,50.1z M66.3,55.5L66.3,55.5L66.3,55.5c-1.3,0-2.4-1.1-2.4-2.4
		c0-1.3,1.1-2.4,2.4-2.4l0,0h0l0,0c1.3,0,2.4,1.1,2.4,2.4C68.6,54.4,67.6,55.5,66.3,55.5L66.3,55.5L66.3,55.5L66.3,55.5z"/>
	<path class="st8" d="M80.8,50c-0.7-0.6-1.6-0.9-2.6-1c0,0-0.1,0-0.1,0c-2.2,0-4,1.8-4,4c0,2.2,1.8,4,4,4c0,0,0.1,0,0.1,0
		c1,0,1.9-0.4,2.6-1.1l0,0v1h1.8V46.5h-1.8L80.8,50L80.8,50L80.8,50z M78.2,55.4c-1.3,0-2.4-1.1-2.4-2.4c0-1.3,1.1-2.4,2.4-2.4
		c1.3,0,2.4,1.1,2.4,2.4C80.5,54.4,79.5,55.4,78.2,55.4L78.2,55.4L78.2,55.4L78.2,55.4z"/>
	<path class="st8" d="M59.6,49v0.8l0,0c-0.4-0.4-0.5-0.5-1-0.7c-0.4-0.1-0.9-0.3-1.4-0.3c0,0-0.1,0-0.1,0c-0.6,0-1.2,0.1-1.6,0.3
		c-0.5,0.2-0.9,0.5-1.3,0.9c-0.4,0.4-0.6,0.8-0.9,1.3c-0.2,0.5-0.3,1-0.3,1.6c0,1.2,0.4,2.2,1.2,3c0.8,0.8,1.8,1.2,3,1.2
		c0,0,0,0,0,0c0.5,0,1-0.1,1.4-0.3c0.4-0.2,0.7-0.3,0.9-0.6l0,0V57l1.8,0l0-8L59.6,49L59.6,49L59.6,49z M57.2,55.3
		C57.2,55.3,57.2,55.3,57.2,55.3c-1.3,0-2.4-1.1-2.4-2.4c0-1.3,1.1-2.4,2.4-2.4c0,0,0,0,0,0c1.3,0,2.4,1.1,2.4,2.4
		C59.6,54.3,58.5,55.3,57.2,55.3L57.2,55.3L57.2,55.3L57.2,55.3z"/>
	<path class="st8" d="M89.7,49l0,0.8l0,0c-0.4-0.4-0.6-0.5-1-0.7c-0.4-0.1-0.9-0.3-1.4-0.3c0,0-0.1,0-0.1,0c-0.6,0-1.2,0.1-1.6,0.3
		c-0.5,0.2-0.9,0.5-1.3,0.9c-0.4,0.4-0.7,0.8-0.9,1.3c-0.2,0.5-0.3,1-0.3,1.6c0,1.2,0.4,2.2,1.2,3c0.8,0.8,1.8,1.2,3,1.2
		c0.5,0,1-0.1,1.4-0.3c0.4-0.2,0.8-0.3,1-0.6l0,0V57l1.8,0l0-8H89.7L89.7,49L89.7,49z M87.4,55.3c-1.3,0-2.4-1.1-2.4-2.4
		c0-1.3,1.1-2.3,2.4-2.4c1.3,0,2.4,1.1,2.4,2.4C89.7,54.2,88.7,55.3,87.4,55.3L87.4,55.3L87.4,55.3L87.4,55.3z"/>
	<path class="st8" d="M100.6,44.8C100.6,44.8,100.6,44.8,100.6,44.8c-1.3,0-2.3,1-2.3,2.2s1,2.2,2.2,2.2c0,0,0,0,0,0
		c1.2,0,2.2-1,2.2-2.2S101.8,44.8,100.6,44.8L100.6,44.8L100.6,44.8L100.6,44.8z M100.6,48.9c-1,0-1.9-0.8-1.9-1.9
		c0-1,0.8-1.9,1.9-1.8c1,0,1.9,0.8,1.9,1.9C102.5,48,101.6,48.9,100.6,48.9L100.6,48.9L100.6,48.9L100.6,48.9z"/>
	<path class="st8" d="M101.2,47.4c-0.1-0.1-0.2-0.1-0.3-0.2c0.2,0,0.4-0.1,0.5-0.2c0.1-0.1,0.2-0.3,0.2-0.4c0-0.1-0.1-0.3-0.1-0.4
		c-0.1-0.1-0.2-0.2-0.3-0.2c-0.1,0-0.3-0.1-0.6-0.1l0,0h-0.1h-1v2.4h0.5v-1h0.1l0,0c0.1,0,0.2,0,0.3,0c0.1,0,0.1,0,0.1,0.1
		c0,0,0,0,0,0c0.1,0,0.1,0.2,0.3,0.3l0,0l0.4,0.5h0.6l-0.3-0.5l0,0C101.4,47.6,101.3,47.4,101.2,47.4L101.2,47.4L101.2,47.4
		L101.2,47.4z M100.6,46.8c0,0-0.1,0-0.1,0l0,0h-0.4v-0.6h0.4l0,0c0,0,0.1,0,0.1,0c0.1,0,0.2,0,0.3,0c0.1,0,0.1,0,0.2,0.1
		c0.1,0,0.1,0.1,0.1,0.2c0,0.1,0,0.2-0.1,0.2c0,0-0.1,0.1-0.1,0.1C100.9,46.8,100.8,46.8,100.6,46.8L100.6,46.8L100.6,46.8
		L100.6,46.8z"/>
	<path class="st8" d="M73.3,40.4h-8.4l0,0c2.5,1.5,5.4,2.6,8.7,3.3l0,0L73.3,40.4L73.3,40.4L73.3,40.4L73.3,40.4z M79.6,40.4
		l-0.5,3.1l0,0c3.3-0.6,6.3-1.6,8.8-3.1l0,0H79.6L79.6,40.4L79.6,40.4L79.6,40.4z M78.7,40.4l-4.6,0l0,0c0.6,1.3,1.5,2.5,2.4,3.5
		C77.4,42.9,78,41.7,78.7,40.4L78.7,40.4L78.7,40.4L78.7,40.4L78.7,40.4z M91,38.4l-29.2,0l0,0c-1-0.8-1.6-1.2-2.4-2.2l0,0h34.1l0,0
		C92.7,37,91.8,37.7,91,38.4L91,38.4L91,38.4L91,38.4L91,38.4z M95.4,33.6l-37.8,0l0,0c-0.5-0.7-1.1-1.7-1.4-2.5l0,0h40.7l0,0
		C96.4,32,95.9,32.8,95.4,33.6L95.4,33.6L95.4,33.6L95.4,33.6L95.4,33.6z M68.3,28.5l-13.2,0l0,0c-1.2-2.8-2-5.7-2.3-9.2
		C59.6,20.4,64.9,23.2,68.3,28.5L68.3,28.5L68.3,28.5L68.3,28.5L68.3,28.5z M81.9,28.5H71l0,0c-0.2-7,1.7-14.1,5.4-18.3
		C80.2,14.3,82.2,21.4,81.9,28.5L81.9,28.5L81.9,28.5L81.9,28.5L81.9,28.5z M97.9,28.5l-13.5,0l0,0c3.7-5.2,9-8.2,16-9.2
		C100,22.7,99.2,25.7,97.9,28.5L97.9,28.5L97.9,28.5L97.9,28.5z"/>
</g>
<g id="Calque_5" class="st0">
	<rect x="-0.3" y="-0.6" class="st1" width="160" height="70.3"/>
	<g class="st2">
		<g>
			<path d="M88.4,36.4c0,0.2,0,1.5,0,2.1c0,2.5-1.7,3.9-4.1,3.9c-0.1,0-0.4,0-0.5,0c-2.4-0.1-4.1-1.5-4.1-3.9c0-0.3,0-1.7,0-2.1
				c0-2.5,1.7-3.9,4.1-3.9c0.1,0,0.4,0,0.5,0C86.7,32.5,88.4,33.9,88.4,36.4z M83.9,34.5C82.9,34.5,82,35,82,36.3c0,0.7,0,1,0,2.1
				c0,1.3,0.9,1.8,1.8,1.9c0,0,0.3,0,0.3,0c0.9-0.1,1.8-0.6,1.8-1.9c0-0.5,0-1,0-2.1c0-1.3-0.9-1.8-1.8-1.9
				C84.1,34.5,84,34.5,83.9,34.5z"/>
			<path d="M91.9,36.6c0,0,3.5-4,3.7-4.2c0.2,0,2.9,0,2.9,0l-4.2,4.8l4.4,4.9h-2.9l-3.9-4.3v4.3h-2.3V30l2.3,0V36.6z"/>
			<path d="M58.8,38.1c0,0,0-1.1,0-1.7c0-2.5-1.7-3.9-4.1-3.9c0,0-0.4,0-0.4,0c-2.4,0.1-4.1,1.5-4.1,3.9c0,0.6,0-0.3,0,2.1
				c0,2.4,1.8,3.8,4,3.9c0.2,0,0.4,0,0.5,0c2.8,0,3.9-1.4,4-3.1c-0.3,0-1.8,0-2.1,0c-0.1,0.3-0.2,1.1-2,1.1c-0.3,0-0.7-0.1-1.1-0.2
				c-1.3-0.4-1.1-2.1-1.1-2.2C52.6,38.1,58.8,38.1,58.8,38.1z M52.5,36.2c0-1.3,0.8-1.8,1.9-1.8c0.1,0,0.2,0,0.3,0
				c1,0,1.9,0.6,1.9,1.8c0,0.1,0,0.1,0,0.2c-0.2,0-3.9,0-4,0C52.5,36.3,52.5,36.3,52.5,36.2z"/>
			<path d="M68.6,38.1c0,0,0-1.1,0-1.7c0-2.5-1.7-3.9-4.1-3.9c0,0-0.4,0-0.4,0c-2.4,0.1-4.1,1.5-4.1,3.9c0,0.6,0-0.3,0,2.1
				c0,2.4,1.8,3.8,4,3.9c0.2,0,0.4,0,0.5,0c2.8,0,3.9-1.4,4-3.1c-0.3,0-1.8,0-2.1,0c-0.1,0.3-0.2,1.1-2,1.1c-0.3,0-0.7-0.1-1.1-0.2
				c-1.3-0.4-1.1-2.1-1.1-2.2C62.4,38.1,68.6,38.1,68.6,38.1z M62.3,36.2c0-1.3,0.8-1.8,1.9-1.8c0.1,0,0.2,0,0.3,0
				c1,0,1.9,0.6,1.9,1.8c0,0.1,0,0.1,0,0.2c-0.2,0-3.9,0-4,0C62.3,36.3,62.3,36.3,62.3,36.2z"/>
			<path d="M74.4,32.4c-1.1,0-1.8,0.3-2.2,0.6c0-0.2,0-3,0-3h-2.3v12.1h0.4c0,0,1-0.6,1.1-0.6c0.2,0.2,1.2,0.9,2.6,0.9
				c0.2,0,0.3,0,0.5,0c2.4-0.1,4.1-1.5,4.1-3.9v-2.1C78.5,34,76.8,32.4,74.4,32.4z M76.2,38.5c0,1.3-0.9,1.8-1.8,1.9
				c0,0-0.3,0-0.3,0c-0.9-0.1-1.8-0.6-1.8-1.9v-2.1c0-1.3,0.9-1.8,1.8-1.9c0.1,0,0.2,0,0.3,0c0.9,0.1,1.8,0.5,1.8,1.9V38.5z"/>
			<path d="M49.9,42.1l-4.5-5c0.2,0,0.4,0,0.7,0c1.5,0,3.4-1,3.4-3.4c0-3-2.4-3.7-4.6-3.7c-2.2,0-5.2,0-5.2,0v12.1H42l0-5.4l4.9,5.4
				H49.9z M42,32.1c0,0,1.5,0,2.8,0c1.3,0,2.5,0.4,2.5,1.7c0,1.2-0.7,1.7-2.5,1.7s-2.8,0-2.8,0V32.1z"/>
		</g>
		<g>
			<path d="M118.8,41.7l-5.5-2.7h-0.1h-5.6h-0.1l-5.5,2.7c0,0-0.1,0.3,0.2,0.7h7.4h1.8h7.4C118.9,42.1,118.8,41.7,118.8,41.7z"/>
			<path d="M101.7,41.4l5.1-3.3l0.1-0.1l2.9-4.9l0.1-0.1l0.4-6.1c0,0-0.2-0.3-0.6-0.2l-3.8,6.4l-0.9,1.5l-3.8,6.4
				C101.3,41.3,101.7,41.4,101.7,41.4z"/>
			<path d="M119.2,41.4l-5.1-3.3l-0.1-0.1l-2.9-4.9l-0.1-0.1l-0.4-6.1c0,0,0.2-0.3,0.6-0.2L115,33l0.9,1.5l3.8,6.4
				C119.5,41.3,119.2,41.4,119.2,41.4z"/>
		</g>
	</g>
</g>
<g id="Calque_6">
	<rect x="-0.3" y="-0.6" class="st9" width="160" height="70.3"/>
	<g>
		<g>
			<path class="st10" d="M107,38.1c0-0.2,0-0.3,0.7-0.5c0.7-0.2,2.6-0.8,3.7-1.5c1.1-0.6,1.3-0.7,1.5-0.5c0.3,0.2,0.2,0.6,0.2,0.9v3
				c0.4-0.7,1.7-2.9,2.8-3.5c0.8-0.5,1.1-0.6,1.6-0.6c0.6,0,2.1,0.4,2.1,1.9c0.1,1.2-0.8,1.7-1.4,1.6c-0.5-0.1-0.8-0.5-1-0.9
				c-0.3-0.4-0.7-0.7-1.1-0.5c-0.4,0.1-2.8,1.7-3,3.9c-0.1,1.6,0,6.7,0,6.7c0,0.8,0.3,1.1,0.6,1.3c0.3,0.2,1.6,0.2,2,0.3
				c0.4,0,0.3,0.1,0.3,0.2c0,0.1,0,0.2-0.3,0.2h-8.5c-0.3,0-0.4-0.1-0.4-0.2c0-0.2,0.4-0.2,0.6-0.2c0.3,0,1.7,0.1,2.1-0.6
				c0.3-0.5,0.3-1.2,0.3-1.2l0-8.9c0-0.7-0.2-0.8-0.4-0.9c-0.2-0.1-0.5-0.2-1.2,0.1C107.6,38.2,107.1,38.4,107,38.1"/>
			<path class="st10" d="M77.4,38.1c-0.1-0.2,0.1-0.4,0.7-0.5c0.7-0.2,2.2-0.7,3.4-1.3c1.2-0.7,1.4-0.8,1.7-0.7
				c0.3,0.1,0.2,0.5,0.2,0.9V48c0,0.6,0.1,0.9,0.4,1.2c0.3,0.3,1,0.4,2,0.4c0.4,0,0.6,0,0.6,0.2c0,0.2-0.1,0.2-0.3,0.2h-8.4
				c-0.3,0-0.3-0.1-0.3-0.2c0-0.1,0.1-0.2,0.5-0.2c0.3,0,1.8,0.1,2.2-0.7c0.1-0.3,0.2-0.7,0.2-1.1v-9.2c0-0.7-0.5-1-1.2-0.9
				C78.4,38,77.6,38.4,77.4,38.1"/>
			<path class="st10" d="M81.7,30.1c1.1,0,2.1-0.9,2.1-2.1c0-1.1-0.9-2.1-2.1-2.1c-1.1,0-2.1,0.9-2.1,2.1
				C79.7,29.2,80.6,30.1,81.7,30.1"/>
			<path class="st10" d="M94.5,35.1c3.6-0.7,8.7,0.1,9.8,5.7c1.2,5.6-2.7,8.6-6,9.3c-3.3,0.7-8.8,0.2-9.8-5.8
				C87.6,38.9,91.5,35.7,94.5,35.1 M91.8,43.2c0.4,3.8,2.6,6.7,5.4,6.2c2.8-0.5,4.2-3.1,3.8-7.4c-0.3-4.3-2.5-6.5-5.3-6.2
				C92.7,36.1,91.4,39.4,91.8,43.2z"/>
			<path class="st10" d="M39.7,49.8c0-0.3,0.4-0.3,0.7-0.3c3.9-0.1,4.7-0.2,5.1-0.7c0.2-0.3,0.6-0.5,0.6-2.3v-25
				c0-2.2-2.7-1.9-4.7-2.1c-0.7-0.1-0.7-0.2-0.7-0.4c0-0.2,0.1-0.3,0.5-0.3H57c17.4,0,18.3,12.7,18.3,16.1c0,7.3-4.8,15.3-14.9,15.3
				H40.2C39.9,50.1,39.7,50.1,39.7,49.8 M52.2,49.1h2.1c7.7,0,9.8-0.7,12.5-4.3c2.7-3.6,3-8.8,3-10.5c0-1.8-0.5-6.1-3.2-9.9
				c-2.7-3.7-7.2-4.7-11.2-4.7h-3.2c-0.8,0-0.8,0.3-0.8,0.9v27.8C51.4,49.1,51.6,49.1,52.2,49.1z"/>
			<path class="st10" d="M107,38.1c0-0.2,0-0.3,0.7-0.5c0.7-0.2,2.6-0.8,3.7-1.5c1.1-0.6,1.3-0.7,1.5-0.5c0.3,0.2,0.2,0.6,0.2,0.9v3
				c0.4-0.7,1.7-2.9,2.8-3.5c0.8-0.5,1.1-0.6,1.6-0.6c0.6,0,2.1,0.4,2.1,1.9c0.1,1.2-0.8,1.7-1.4,1.6c-0.5-0.1-0.8-0.5-1-0.9
				c-0.3-0.4-0.7-0.7-1.1-0.5c-0.4,0.1-2.8,1.7-3,3.9c-0.1,1.6,0,6.7,0,6.7c0,0.8,0.3,1.1,0.6,1.3c0.3,0.2,1.6,0.2,2,0.3
				c0.4,0,0.3,0.1,0.3,0.2c0,0.1,0,0.2-0.3,0.2h-8.5c-0.3,0-0.4-0.1-0.4-0.2c0-0.2,0.4-0.2,0.6-0.2c0.3,0,1.7,0.1,2.1-0.6
				c0.3-0.5,0.3-1.2,0.3-1.2l0-8.9c0-0.7-0.2-0.8-0.4-0.9c-0.2-0.1-0.5-0.2-1.2,0.1C107.6,38.2,107.1,38.4,107,38.1"/>
			<path class="st10" d="M77.4,38.1c-0.1-0.2,0.1-0.4,0.7-0.5c0.7-0.2,2.2-0.7,3.4-1.3c1.2-0.7,1.4-0.8,1.7-0.7
				c0.3,0.1,0.2,0.5,0.2,0.9V48c0,0.6,0.1,0.9,0.4,1.2c0.3,0.3,1,0.4,2,0.4c0.4,0,0.6,0,0.6,0.2c0,0.2-0.1,0.2-0.3,0.2h-8.4
				c-0.3,0-0.3-0.1-0.3-0.2c0-0.1,0.1-0.2,0.5-0.2c0.3,0,1.8,0.1,2.2-0.7c0.1-0.3,0.2-0.7,0.2-1.1v-9.2c0-0.7-0.5-1-1.2-0.9
				C78.4,38,77.6,38.4,77.4,38.1"/>
			<path class="st10" d="M81.7,30.1c1.1,0,2.1-0.9,2.1-2.1c0-1.1-0.9-2.1-2.1-2.1c-1.1,0-2.1,0.9-2.1,2.1
				C79.7,29.2,80.6,30.1,81.7,30.1"/>
			<path class="st10" d="M94.5,35.1c3.6-0.7,8.7,0.1,9.8,5.7c1.2,5.6-2.7,8.6-6,9.3c-3.3,0.7-8.8,0.2-9.8-5.8
				C87.6,38.9,91.5,35.7,94.5,35.1 M91.8,43.2c0.4,3.8,2.6,6.7,5.4,6.2c2.8-0.5,4.2-3.1,3.8-7.4c-0.3-4.3-2.5-6.5-5.3-6.2
				C92.7,36.1,91.4,39.4,91.8,43.2z"/>
			<path class="st10" d="M39.7,49.8c0-0.3,0.4-0.3,0.7-0.3c3.9-0.1,4.7-0.2,5.1-0.7c0.2-0.3,0.6-0.5,0.6-2.3v-25
				c0-2.2-2.7-1.9-4.7-2.1c-0.7-0.1-0.7-0.2-0.7-0.4c0-0.2,0.1-0.3,0.5-0.3H57c17.4,0,18.3,12.7,18.3,16.1c0,7.3-4.8,15.3-14.9,15.3
				H40.2C39.9,50.1,39.7,50.1,39.7,49.8 M52.2,49.1h2.1c7.7,0,9.8-0.7,12.5-4.3c2.7-3.6,3-8.8,3-10.5c0-1.8-0.5-6.1-3.2-9.9
				c-2.7-3.7-7.2-4.7-11.2-4.7h-3.2c-0.8,0-0.8,0.3-0.8,0.9v27.8C51.4,49.1,51.6,49.1,52.2,49.1z"/>
		</g>
	</g>
</g>
<g id="Calque_7">
</g>
<g id="Calque_8">
</g>
<g id="Calque_9">
</g>
<g id="Calque_10">
</g>
<g id="Calque_11">
</g>
<g id="Calque_12">
</g>
</svg>
