<?xml version="1.0" encoding="utf-8"?>
<!-- Generator: Adobe Illustrator 26.0.0, SVG Export Plug-In . SVG Version: 6.00 Build 0)  -->
<svg version="1.1" xmlns="http://www.w3.org/2000/svg" xmlns:xlink="http://www.w3.org/1999/xlink" x="0px" y="0px"
	 viewBox="0 0 160 70" style="enable-background:new 0 0 160 70;" xml:space="preserve">
<style type="text/css">
	.st0{display:none;}
	.st1{fill:none;stroke:#000000;stroke-miterlimit:10;}
	.st2{display:inline;}
	.st3{font-family:'Archistico-Normal';}
	.st4{font-size:17.6077px;}
	.st5{display:inline;fill:none;stroke:#000000;stroke-miterlimit:10;}
	.st6{fill-rule:evenodd;clip-rule:evenodd;}
	.st7{fill:#020203;}
	.st8{display:inline;fill-rule:evenodd;clip-rule:evenodd;}
	.st9{fill:#1E1E1C;}
	.st10{display:none;fill:none;stroke:#000000;stroke-miterlimit:10;}
</style>
<g id="chanel" class="st0">
	<rect x="-0.1" y="0.5" class="st1" width="160" height="70.3"/>
	<text transform="matrix(1 0 0 1 39.8923 40.7628)" class="st2 st3 st4">CHANEL</text>
</g>
<g id="puma" class="st0">
	<rect x="0.3" y="0.1" class="st5" width="160" height="70.3"/>
	<g class="st2">
		<path class="st6" d="M83.4,10.7c-0.3,0-0.5,1-1,1.5c-0.4,0.4-0.8,0.3-1.1,0.8c-0.1,0.2-0.1,0.5-0.2,0.7c-0.2,0.5-0.9,0.6-0.9,1.2
			c0,0.6,0.6,0.8,1.1,1.2c0.4,0.4,0.5,0.6,1,0.8c0.4,0.1,1.1-0.3,1.6-0.2c0.5,0.1,0.9,0.2,1,0.7c0.1,0.4,0,1.1-0.6,1.1
			c-0.2,0-1-0.3-2-0.2c-1.2,0.1-2.6,0.5-2.8,1.9c-0.1,0.8,0.9,1.7,1.8,1.5c0.6-0.1,0.3-0.9,0.7-1.2c0.5-0.5,3,1.6,5.4,1.6
			c1,0,1.7-0.3,2.5-1c0.1-0.1,0.2-0.2,0.3-0.2c0.1,0,0.3,0.1,0.3,0.1c1.9,1.5,3.4,4.6,10.4,4.7c1,0,2.1,0.5,3,1.3
			c0.8,0.8,1.3,1.9,1.8,3.1c0.7,1.8,2,3.5,3.9,5.5c0.1,0.1,1.7,1.3,1.8,1.4c0,0,0.1,0.3,0.1,0.4c0,1.2-0.2,4.6,2.3,4.7
			c0.6,0,0.5-0.4,0.5-0.7c0-0.6-0.1-1.2,0.2-1.8c0.4-0.8-0.9-1.2-0.9-3c0-1.3-1.1-1.1-1.7-2.1c-0.3-0.6-0.6-0.9-0.6-1.6
			c0.1-4.1-0.9-6.8-1.4-7.4c-0.4-0.5-0.7-0.7-0.4-0.9c2.1-1.4,2.6-2.7,2.6-2.7c1.1-2.6,2.1-5.1,3.5-6.1c0.3-0.2,1-0.8,1.4-1
			c1.3-0.6,2-1,2.4-1.4c0.6-0.6,1.1-1.8,0.5-2.5c-0.7-0.9-1.9-0.2-2.5,0.1c-3.9,2.3-4.5,6.4-5.8,8.7c-1.1,1.9-2.8,3.2-4.4,3.3
			c-1.2,0.1-2.4-0.1-3.7-0.7c-3.1-1.3-4.7-3.1-5.1-3.4c-0.8-0.6-7.2-6.9-12.3-7.1c0,0-0.6-1.3-0.8-1.3c-0.4,0-0.8,0.8-1,0.9
			C84.1,11.6,83.7,10.6,83.4,10.7L83.4,10.7z"/>
		<path class="st6" d="M60.7,48c-0.5,0-0.9-0.4-0.9-0.9l0-16.1h-5.3v17.7c0,0.9,0.7,1.6,1.6,1.6h9.3c0.9,0,1.6-0.7,1.6-1.6V31h-5.3
			l0,16.1C61.6,47.6,61.2,48,60.7,48L60.7,48z"/>
		<path class="st6" d="M78.5,31h-8c-1,0-1.7,0.8-1.7,1.7v17.6H74V34.2c0-0.5,0.4-0.9,0.9-0.9c0.5,0,0.9,0.4,0.9,0.9v16.1h5.3V34.2
			c0-0.5,0.4-0.9,0.9-0.9c0.5,0,0.9,0.4,0.9,0.9v16.1h5.3V32.7c0-1-0.8-1.7-1.7-1.7H78.5L78.5,31z"/>
		<path class="st6" d="M51,45.5h-5.4v4.9h-5.3V31H51c1,0,1.7,0.8,1.7,1.7v11C52.7,44.7,51.9,45.5,51,45.5L51,45.5z M47.4,34.2
			c0-0.5-0.4-0.9-0.9-0.9h-0.9v9.8h0.9c0.5,0,0.9-0.4,0.9-0.9V34.2L47.4,34.2z"/>
		<path class="st6" d="M108.8,48c0,1.3-1.1,2.4-2.4,2.4c-1.3,0-2.4-1.1-2.4-2.4c0-1.3,1.1-2.4,2.3-2.4
			C107.8,45.7,108.8,46.7,108.8,48L108.8,48z M106.4,46c-1.1,0-2,0.9-2,2c0,1.1,0.9,2,2,2c1.1,0,2-0.9,2-2
			C108.4,46.9,107.5,46,106.4,46L106.4,46L106.4,46z"/>
		<path class="st6" d="M107.6,49.4h-0.6l-0.8-1.1v1.1h-0.5v-2.7h0.5c0.7,0,1.1,0.3,1.1,0.8c0,0.4-0.2,0.7-0.6,0.8l0,0L107.6,49.4
			L107.6,49.4z M106.2,47.9c0.4,0,0.6-0.1,0.6-0.4c0-0.2-0.2-0.4-0.5-0.4h-0.1L106.2,47.9L106.2,47.9L106.2,47.9z"/>
		<path class="st6" d="M97.1,50.3v-4.9h-1.8v4.9H90V32.7c0-1,0.8-1.7,1.7-1.7h9c1,0,1.7,0.8,1.7,1.7v17.6H97.1L97.1,50.3z
			 M97.1,43.1v-8.9c0-0.5-0.4-0.9-0.9-0.9c-0.5,0-0.9,0.4-0.9,0.9v8.9H97.1L97.1,43.1z"/>
		<path class="st6" d="M40.5,60.1v-5.3h0.6v0.5c0.1-0.2,0.3-0.3,0.5-0.4c0.2-0.1,0.4-0.1,0.6-0.1c0.3,0,0.6,0.1,0.9,0.3
			c0.3,0.2,0.4,0.4,0.6,0.7c0.1,0.3,0.2,0.6,0.2,1c0,0.4-0.1,0.7-0.2,1.1c-0.1,0.3-0.3,0.6-0.6,0.7c-0.3,0.2-0.6,0.3-0.8,0.3
			c-0.2,0-0.4,0-0.6-0.1c-0.2-0.1-0.3-0.2-0.4-0.3v1.9H40.5L40.5,60.1z M41.1,56.7c0,0.5,0.1,0.9,0.3,1.1c0.2,0.2,0.4,0.4,0.7,0.4
			c0.3,0,0.5-0.1,0.7-0.4c0.2-0.2,0.3-0.6,0.3-1.1c0-0.5-0.1-0.9-0.3-1.1c-0.2-0.2-0.4-0.4-0.7-0.4c-0.3,0-0.5,0.1-0.7,0.4
			C41.2,55.8,41.1,56.2,41.1,56.7L41.1,56.7z"/>
		<path class="st6" d="M50.8,58.6V58c-0.3,0.4-0.7,0.6-1.2,0.6c-0.2,0-0.4,0-0.6-0.1c-0.2-0.1-0.3-0.2-0.4-0.3
			c-0.1-0.1-0.2-0.3-0.2-0.5c0-0.1,0-0.3,0-0.6v-2.4h0.6v2.1c0,0.3,0,0.6,0,0.7c0,0.2,0.1,0.3,0.3,0.4c0.1,0.1,0.3,0.1,0.5,0.1
			c0.2,0,0.4,0,0.5-0.1c0.2-0.1,0.3-0.2,0.4-0.4c0.1-0.2,0.1-0.4,0.1-0.8v-2.1h0.6v3.8H50.8L50.8,58.6z"/>
		<path class="st6" d="M56.1,58.6v-3.8h0.6v0.5c0.1-0.2,0.3-0.3,0.5-0.5c0.2-0.1,0.4-0.2,0.7-0.2c0.3,0,0.5,0.1,0.7,0.2
			c0.2,0.1,0.3,0.3,0.4,0.5c0.3-0.4,0.7-0.7,1.2-0.7c0.4,0,0.7,0.1,0.9,0.3c0.2,0.2,0.3,0.5,0.3,1v2.6h-0.6v-2.4
			c0-0.3,0-0.4-0.1-0.6c0-0.1-0.1-0.2-0.2-0.3c-0.1-0.1-0.2-0.1-0.4-0.1c-0.3,0-0.5,0.1-0.7,0.3C59.1,55.7,59,56,59,56.4v2.2h-0.6
			v-2.5c0-0.3-0.1-0.5-0.2-0.7c-0.1-0.1-0.3-0.2-0.5-0.2c-0.2,0-0.4,0-0.5,0.1c-0.2,0.1-0.3,0.2-0.3,0.4c-0.1,0.2-0.1,0.5-0.1,0.8v2
			H56.1L56.1,58.6z"/>
		<path class="st6" d="M68.5,58.1c-0.2,0.2-0.5,0.3-0.7,0.4c-0.2,0.1-0.5,0.1-0.7,0.1c-0.4,0-0.7-0.1-1-0.3
			c-0.2-0.2-0.3-0.5-0.3-0.8c0-0.2,0-0.4,0.1-0.5c0.1-0.2,0.2-0.3,0.3-0.4c0.1-0.1,0.3-0.2,0.5-0.2c0.1,0,0.3-0.1,0.6-0.1
			c0.5-0.1,0.9-0.1,1.2-0.2c0-0.1,0-0.1,0-0.2c0-0.3-0.1-0.5-0.2-0.6c-0.2-0.1-0.4-0.2-0.7-0.2c-0.3,0-0.5,0.1-0.7,0.2
			c-0.1,0.1-0.3,0.3-0.3,0.6l-0.6-0.1c0.1-0.3,0.2-0.5,0.3-0.7c0.1-0.2,0.3-0.3,0.6-0.4c0.3-0.1,0.5-0.1,0.9-0.1
			c0.3,0,0.6,0,0.8,0.1c0.2,0.1,0.4,0.2,0.5,0.3c0.1,0.1,0.2,0.3,0.2,0.4c0,0.1,0,0.3,0,0.6V57c0,0.6,0,1,0,1.1
			c0,0.2,0.1,0.3,0.2,0.5h-0.7C68.5,58.5,68.5,58.3,68.5,58.1L68.5,58.1z M68.4,56.7c-0.2,0.1-0.6,0.2-1.1,0.2
			c-0.3,0-0.5,0.1-0.6,0.1c-0.1,0-0.2,0.1-0.3,0.2c-0.1,0.1-0.1,0.2-0.1,0.3c0,0.2,0.1,0.3,0.2,0.4c0.1,0.1,0.3,0.2,0.6,0.2
			c0.3,0,0.5-0.1,0.7-0.2c0.2-0.1,0.3-0.3,0.4-0.5c0.1-0.1,0.1-0.4,0.1-0.6V56.7L68.4,56.7z"/>
		<polygon class="st6" points="74,58.6 74,57.9 74.7,57.9 74.7,58.6 74,58.6 		"/>
		<path class="st6" d="M82,57.2l0.6,0.1c-0.1,0.4-0.2,0.8-0.5,1c-0.3,0.2-0.6,0.4-1.1,0.4c-0.5,0-0.9-0.2-1.3-0.5
			c-0.3-0.3-0.5-0.8-0.5-1.5c0-0.4,0.1-0.8,0.2-1.1c0.1-0.3,0.3-0.5,0.6-0.7c0.3-0.2,0.6-0.2,0.9-0.2c0.4,0,0.8,0.1,1,0.3
			c0.3,0.2,0.4,0.5,0.5,0.9L82,56c-0.1-0.3-0.2-0.5-0.3-0.6c-0.2-0.1-0.3-0.2-0.6-0.2c-0.3,0-0.6,0.1-0.8,0.4
			c-0.2,0.2-0.3,0.6-0.3,1.1c0,0.5,0.1,0.9,0.3,1.1c0.2,0.2,0.5,0.4,0.8,0.4c0.3,0,0.5-0.1,0.6-0.2C81.9,57.8,82,57.5,82,57.2
			L82,57.2z"/>
		<path class="st6" d="M86.7,56.7c0-0.7,0.2-1.2,0.6-1.6c0.3-0.3,0.7-0.4,1.2-0.4c0.5,0,1,0.2,1.3,0.5c0.3,0.3,0.5,0.8,0.5,1.4
			c0,0.5-0.1,0.9-0.2,1.2c-0.1,0.3-0.4,0.5-0.6,0.7c-0.3,0.2-0.6,0.2-0.9,0.2c-0.5,0-1-0.2-1.3-0.5C86.8,57.8,86.7,57.3,86.7,56.7
			L86.7,56.7z M87.3,56.7c0,0.5,0.1,0.9,0.3,1.1c0.2,0.2,0.5,0.4,0.8,0.4c0.3,0,0.6-0.1,0.8-0.4c0.2-0.2,0.3-0.6,0.3-1.1
			c0-0.5-0.1-0.8-0.3-1.1s-0.5-0.4-0.8-0.4c-0.3,0-0.6,0.1-0.8,0.4C87.5,55.8,87.3,56.2,87.3,56.7L87.3,56.7z"/>
		<path class="st6" d="M94.7,58.6v-3.8h0.6v0.5c0.1-0.2,0.3-0.3,0.5-0.5c0.2-0.1,0.4-0.2,0.7-0.2c0.3,0,0.5,0.1,0.7,0.2
			c0.2,0.1,0.3,0.3,0.4,0.5c0.3-0.4,0.7-0.7,1.2-0.7c0.4,0,0.7,0.1,0.9,0.3c0.2,0.2,0.3,0.5,0.3,1v2.6h-0.6v-2.4
			c0-0.3,0-0.4-0.1-0.6c0-0.1-0.1-0.2-0.2-0.3c-0.1-0.1-0.2-0.1-0.4-0.1c-0.3,0-0.5,0.1-0.7,0.3c-0.2,0.2-0.3,0.5-0.3,0.9v2.2H97
			v-2.5c0-0.3-0.1-0.5-0.2-0.7c-0.1-0.1-0.3-0.2-0.5-0.2c-0.2,0-0.4,0-0.5,0.1c-0.2,0.1-0.3,0.2-0.3,0.4c-0.1,0.2-0.1,0.5-0.1,0.8v2
			H94.7L94.7,58.6z"/>
	</g>
</g>
<g id="Calque_3" class="st0">
	<rect x="-0.3" y="-0.6" class="st1" width="160" height="70.3"/>
	<g class="st2">
		<g>
			<polygon class="st7" points="39.7,47.7 39.7,36.6 41.3,36.6 41.3,41 49,41 49,36.6 50.6,36.6 50.6,47.7 49,47.7 49,42.3 
				41.3,42.3 41.3,47.7 			"/>
			<path class="st7" d="M67.5,46.7c1.5,0,2.7-0.4,3.6-1.3c0.9-0.9,1.4-1.9,1.4-3.2s-0.5-2.4-1.4-3.2s-2.2-1.3-3.6-1.3
				c-1.4,0-2.6,0.4-3.6,1.3c-0.9,0.9-1.4,1.9-1.4,3.2s0.5,2.4,1.4,3.2C64.9,46.3,66,46.7,67.5,46.7z M67.5,48c-2,0-3.6-0.6-4.8-1.7
				c-1.3-1.1-1.9-2.5-1.9-4.2c0-1.7,0.7-3.1,1.9-4.2c1.3-1.1,2.9-1.7,4.8-1.7c2,0,3.6,0.6,4.9,1.7c1.3,1.1,1.9,2.5,1.9,4.2
				c0,1.7-0.7,3-1.9,4.2C71.1,47.4,69.5,48,67.5,48z"/>
			<polygon class="st7" points="84.3,47.7 84.3,36.6 85.8,36.6 91.1,43.4 96.4,36.6 97.9,36.6 97.9,47.7 96.2,47.7 96.2,39 
				91.1,45.6 85.9,39 85.9,47.7 			"/>
			<polygon class="st7" points="108.9,47.7 108.9,36.6 119.2,36.6 119.2,37.9 110.5,37.9 110.5,41.1 115.7,41.1 115.7,42.4 
				110.5,42.4 110.5,46.4 119.7,46.4 119.7,47.7 			"/>
		</g>
		<g>
			<polygon class="st7" points="39.7,32.5 48.7,22.5 40.4,22.5 40.4,21.1 51.7,21.1 42.9,31.2 51.7,31.2 51.7,32.5 			"/>
			<path class="st7" d="M64.1,28.1H70l-3-5.1L64.1,28.1z M59.8,32.5l6.6-11.4h1.4l6.7,11.3h-1.8l-1.8-3h-7.5l-1.8,3L59.8,32.5
				L59.8,32.5z"/>
			<path class="st7" d="M85.4,26.2h5.9c0.8,0,1.5-0.2,1.9-0.5c0.5-0.3,0.7-0.7,0.7-1.4c0-0.6-0.2-1.1-0.7-1.4
				c-0.5-0.3-1-0.5-1.8-0.5h-6V26.2z M83.8,32.5V21.1h7.7c1.3,0,2.3,0.3,3.1,0.8s1.1,1.3,1.1,2.3c0,0.8-0.3,1.5-0.8,2.1
				c-0.6,0.6-1.3,0.9-2.3,1.1l3.4,5h-1.8l-3.4-5h-5.2v5H83.8z"/>
			<path class="st7" d="M107.6,28.1h5.9l-2.9-5.1L107.6,28.1z M103.3,32.5l6.6-11.3h1.4l6.6,11.3h-1.8l-1.8-3h-7.4l-1.8,3H103.3z"/>
		</g>
	</g>
</g>
<g id="Calque_4" class="st0">
	<rect x="-0.3" y="-0.6" class="st1" width="160" height="70.3"/>
	<path class="st8" d="M96.3,52.1c-1.2-0.2-2.2-0.2-2.2-0.9c0-0.2,0.1-0.5,0.4-0.7c0.2-0.2,0.7-0.2,1.1-0.2c0.4,0,0.7,0.2,1,0.4
		c0.1,0.2,0.3,0.4,0.3,0.7l0,0h1.9l0,0c0-0.7-0.3-1.4-0.9-1.8c-0.5-0.4-1.2-0.9-2.1-0.9c-0.9,0-1.8,0-2.4,0.5
		c-0.6,0.4-1.1,1.2-1.1,1.8c0,0.4,0,0.8,0.1,1.1c0.2,0.3,0.6,0.8,1,1c0.5,0.3,1.7,0.4,2.3,0.6c0.5,0.1,1.2,0.2,1.3,0.7
		c0.1,0.3,0,0.6-0.3,0.8c-0.3,0.2-0.7,0.3-1.1,0.3c-0.5,0-0.9-0.1-1.2-0.4c-0.2-0.3-0.3-0.5-0.5-0.9l0,0H92l0,0
		c0,0.9,0.5,1.7,1.1,2.2c0.6,0.5,1.4,0.7,2.4,0.7c1,0,1.9-0.2,2.5-0.6c0.6-0.5,1-1.3,1-2c0-0.6-0.2-1.1-0.4-1.4
		C98,52.4,97,52.2,96.3,52.1L96.3,52.1L96.3,52.1L96.3,52.1z"/>
	<polygon class="st8" points="71.7,57 73.6,57 73.6,49 71.7,49 71.7,57 71.7,57 	"/>
	<polygon class="st8" points="71.7,48.5 73.6,48.5 73.6,46.6 71.7,46.6 71.7,48.5 71.7,48.5 	"/>
	<path class="st8" d="M68.9,50.1c-0.7-0.6-1.6-0.9-2.6-1c0,0-0.1,0-0.1,0c-2.2,0-4,1.8-4,4c0,2.2,1.8,4,4,4c0,0,0.1,0,0.1,0
		c1,0,1.9-0.4,2.6-1.1l0,0l0,1h1.8V46.6h-1.8V50.1L68.9,50.1L68.9,50.1z M66.3,55.5L66.3,55.5L66.3,55.5c-1.3,0-2.4-1.1-2.4-2.4
		c0-1.3,1.1-2.4,2.4-2.4l0,0h0l0,0c1.3,0,2.4,1.1,2.4,2.4C68.6,54.4,67.6,55.5,66.3,55.5L66.3,55.5L66.3,55.5L66.3,55.5z"/>
	<path class="st8" d="M80.8,50c-0.7-0.6-1.6-0.9-2.6-1c0,0-0.1,0-0.1,0c-2.2,0-4,1.8-4,4c0,2.2,1.8,4,4,4c0,0,0.1,0,0.1,0
		c1,0,1.9-0.4,2.6-1.1l0,0v1h1.8V46.5h-1.8L80.8,50L80.8,50L80.8,50z M78.2,55.4c-1.3,0-2.4-1.1-2.4-2.4c0-1.3,1.1-2.4,2.4-2.4
		c1.3,0,2.4,1.1,2.4,2.4C80.5,54.4,79.5,55.4,78.2,55.4L78.2,55.4L78.2,55.4L78.2,55.4z"/>
	<path class="st8" d="M59.6,49v0.8l0,0c-0.4-0.4-0.5-0.5-1-0.7c-0.4-0.1-0.9-0.3-1.4-0.3c0,0-0.1,0-0.1,0c-0.6,0-1.2,0.1-1.6,0.3
		c-0.5,0.2-0.9,0.5-1.3,0.9c-0.4,0.4-0.6,0.8-0.9,1.3c-0.2,0.5-0.3,1-0.3,1.6c0,1.2,0.4,2.2,1.2,3c0.8,0.8,1.8,1.2,3,1.2
		c0,0,0,0,0,0c0.5,0,1-0.1,1.4-0.3c0.4-0.2,0.7-0.3,0.9-0.6l0,0V57l1.8,0l0-8L59.6,49L59.6,49L59.6,49z M57.2,55.3
		C57.2,55.3,57.2,55.3,57.2,55.3c-1.3,0-2.4-1.1-2.4-2.4c0-1.3,1.1-2.4,2.4-2.4c0,0,0,0,0,0c1.3,0,2.4,1.1,2.4,2.4
		C59.6,54.3,58.5,55.3,57.2,55.3L57.2,55.3L57.2,55.3L57.2,55.3z"/>
	<path class="st8" d="M89.7,49l0,0.8l0,0c-0.4-0.4-0.6-0.5-1-0.7c-0.4-0.1-0.9-0.3-1.4-0.3c0,0-0.1,0-0.1,0c-0.6,0-1.2,0.1-1.6,0.3
		c-0.5,0.2-0.9,0.5-1.3,0.9c-0.4,0.4-0.7,0.8-0.9,1.3c-0.2,0.5-0.3,1-0.3,1.6c0,1.2,0.4,2.2,1.2,3c0.8,0.8,1.8,1.2,3,1.2
		c0.5,0,1-0.1,1.4-0.3c0.4-0.2,0.8-0.3,1-0.6l0,0V57l1.8,0l0-8H89.7L89.7,49L89.7,49z M87.4,55.3c-1.3,0-2.4-1.1-2.4-2.4
		c0-1.3,1.1-2.3,2.4-2.4c1.3,0,2.4,1.1,2.4,2.4C89.7,54.2,88.7,55.3,87.4,55.3L87.4,55.3L87.4,55.3L87.4,55.3z"/>
	<path class="st8" d="M100.6,44.8C100.6,44.8,100.6,44.8,100.6,44.8c-1.3,0-2.3,1-2.3,2.2s1,2.2,2.2,2.2c0,0,0,0,0,0
		c1.2,0,2.2-1,2.2-2.2S101.8,44.8,100.6,44.8L100.6,44.8L100.6,44.8L100.6,44.8z M100.6,48.9c-1,0-1.9-0.8-1.9-1.9
		c0-1,0.8-1.9,1.9-1.8c1,0,1.9,0.8,1.9,1.9C102.5,48,101.6,48.9,100.6,48.9L100.6,48.9L100.6,48.9L100.6,48.9z"/>
	<path class="st8" d="M101.2,47.4c-0.1-0.1-0.2-0.1-0.3-0.2c0.2,0,0.4-0.1,0.5-0.2c0.1-0.1,0.2-0.3,0.2-0.4c0-0.1-0.1-0.3-0.1-0.4
		c-0.1-0.1-0.2-0.2-0.3-0.2c-0.1,0-0.3-0.1-0.6-0.1l0,0h-0.1h-1v2.4h0.5v-1h0.1l0,0c0.1,0,0.2,0,0.3,0c0.1,0,0.1,0,0.1,0.1
		c0,0,0,0,0,0c0.1,0,0.1,0.2,0.3,0.3l0,0l0.4,0.5h0.6l-0.3-0.5l0,0C101.4,47.6,101.3,47.4,101.2,47.4L101.2,47.4L101.2,47.4
		L101.2,47.4z M100.6,46.8c0,0-0.1,0-0.1,0l0,0h-0.4v-0.6h0.4l0,0c0,0,0.1,0,0.1,0c0.1,0,0.2,0,0.3,0c0.1,0,0.1,0,0.2,0.1
		c0.1,0,0.1,0.1,0.1,0.2c0,0.1,0,0.2-0.1,0.2c0,0-0.1,0.1-0.1,0.1C100.9,46.8,100.8,46.8,100.6,46.8L100.6,46.8L100.6,46.8
		L100.6,46.8z"/>
	<path class="st8" d="M73.3,40.4h-8.4l0,0c2.5,1.5,5.4,2.6,8.7,3.3l0,0L73.3,40.4L73.3,40.4L73.3,40.4L73.3,40.4z M79.6,40.4
		l-0.5,3.1l0,0c3.3-0.6,6.3-1.6,8.8-3.1l0,0H79.6L79.6,40.4L79.6,40.4L79.6,40.4z M78.7,40.4l-4.6,0l0,0c0.6,1.3,1.5,2.5,2.4,3.5
		C77.4,42.9,78,41.7,78.7,40.4L78.7,40.4L78.7,40.4L78.7,40.4L78.7,40.4z M91,38.4l-29.2,0l0,0c-1-0.8-1.6-1.2-2.4-2.2l0,0h34.1l0,0
		C92.7,37,91.8,37.7,91,38.4L91,38.4L91,38.4L91,38.4L91,38.4z M95.4,33.6l-37.8,0l0,0c-0.5-0.7-1.1-1.7-1.4-2.5l0,0h40.7l0,0
		C96.4,32,95.9,32.8,95.4,33.6L95.4,33.6L95.4,33.6L95.4,33.6L95.4,33.6z M68.3,28.5l-13.2,0l0,0c-1.2-2.8-2-5.7-2.3-9.2
		C59.6,20.4,64.9,23.2,68.3,28.5L68.3,28.5L68.3,28.5L68.3,28.5L68.3,28.5z M81.9,28.5H71l0,0c-0.2-7,1.7-14.1,5.4-18.3
		C80.2,14.3,82.2,21.4,81.9,28.5L81.9,28.5L81.9,28.5L81.9,28.5L81.9,28.5z M97.9,28.5l-13.5,0l0,0c3.7-5.2,9-8.2,16-9.2
		C100,22.7,99.2,25.7,97.9,28.5L97.9,28.5L97.9,28.5L97.9,28.5z"/>
</g>
<g id="Calque_5" class="st0">
	<rect x="-0.3" y="-0.6" class="st1" width="160" height="70.3"/>
	<g class="st2">
		<g>
			<path d="M88.4,36.4c0,0.2,0,1.5,0,2.1c0,2.5-1.7,3.9-4.1,3.9c-0.1,0-0.4,0-0.5,0c-2.4-0.1-4.1-1.5-4.1-3.9c0-0.3,0-1.7,0-2.1
				c0-2.5,1.7-3.9,4.1-3.9c0.1,0,0.4,0,0.5,0C86.7,32.5,88.4,33.9,88.4,36.4z M83.9,34.5C82.9,34.5,82,35,82,36.3c0,0.7,0,1,0,2.1
				c0,1.3,0.9,1.8,1.8,1.9c0,0,0.3,0,0.3,0c0.9-0.1,1.8-0.6,1.8-1.9c0-0.5,0-1,0-2.1c0-1.3-0.9-1.8-1.8-1.9
				C84.1,34.5,84,34.5,83.9,34.5z"/>
			<path d="M91.9,36.6c0,0,3.5-4,3.7-4.2c0.2,0,2.9,0,2.9,0l-4.2,4.8l4.4,4.9h-2.9l-3.9-4.3v4.3h-2.3V30l2.3,0V36.6z"/>
			<path d="M58.8,38.1c0,0,0-1.1,0-1.7c0-2.5-1.7-3.9-4.1-3.9c0,0-0.4,0-0.4,0c-2.4,0.1-4.1,1.5-4.1,3.9c0,0.6,0-0.3,0,2.1
				c0,2.4,1.8,3.8,4,3.9c0.2,0,0.4,0,0.5,0c2.8,0,3.9-1.4,4-3.1c-0.3,0-1.8,0-2.1,0c-0.1,0.3-0.2,1.1-2,1.1c-0.3,0-0.7-0.1-1.1-0.2
				c-1.3-0.4-1.1-2.1-1.1-2.2C52.6,38.1,58.8,38.1,58.8,38.1z M52.5,36.2c0-1.3,0.8-1.8,1.9-1.8c0.1,0,0.2,0,0.3,0
				c1,0,1.9,0.6,1.9,1.8c0,0.1,0,0.1,0,0.2c-0.2,0-3.9,0-4,0C52.5,36.3,52.5,36.3,52.5,36.2z"/>
			<path d="M68.6,38.1c0,0,0-1.1,0-1.7c0-2.5-1.7-3.9-4.1-3.9c0,0-0.4,0-0.4,0c-2.4,0.1-4.1,1.5-4.1,3.9c0,0.6,0-0.3,0,2.1
				c0,2.4,1.8,3.8,4,3.9c0.2,0,0.4,0,0.5,0c2.8,0,3.9-1.4,4-3.1c-0.3,0-1.8,0-2.1,0c-0.1,0.3-0.2,1.1-2,1.1c-0.3,0-0.7-0.1-1.1-0.2
				c-1.3-0.4-1.1-2.1-1.1-2.2C62.4,38.1,68.6,38.1,68.6,38.1z M62.3,36.2c0-1.3,0.8-1.8,1.9-1.8c0.1,0,0.2,0,0.3,0
				c1,0,1.9,0.6,1.9,1.8c0,0.1,0,0.1,0,0.2c-0.2,0-3.9,0-4,0C62.3,36.3,62.3,36.3,62.3,36.2z"/>
			<path d="M74.4,32.4c-1.1,0-1.8,0.3-2.2,0.6c0-0.2,0-3,0-3h-2.3v12.1h0.4c0,0,1-0.6,1.1-0.6c0.2,0.2,1.2,0.9,2.6,0.9
				c0.2,0,0.3,0,0.5,0c2.4-0.1,4.1-1.5,4.1-3.9v-2.1C78.5,34,76.8,32.4,74.4,32.4z M76.2,38.5c0,1.3-0.9,1.8-1.8,1.9
				c0,0-0.3,0-0.3,0c-0.9-0.1-1.8-0.6-1.8-1.9v-2.1c0-1.3,0.9-1.8,1.8-1.9c0.1,0,0.2,0,0.3,0c0.9,0.1,1.8,0.5,1.8,1.9V38.5z"/>
			<path d="M49.9,42.1l-4.5-5c0.2,0,0.4,0,0.7,0c1.5,0,3.4-1,3.4-3.4c0-3-2.4-3.7-4.6-3.7c-2.2,0-5.2,0-5.2,0v12.1H42l0-5.4l4.9,5.4
				H49.9z M42,32.1c0,0,1.5,0,2.8,0c1.3,0,2.5,0.4,2.5,1.7c0,1.2-0.7,1.7-2.5,1.7s-2.8,0-2.8,0V32.1z"/>
		</g>
		<g>
			<path d="M118.8,41.7l-5.5-2.7h-0.1h-5.6h-0.1l-5.5,2.7c0,0-0.1,0.3,0.2,0.7h7.4h1.8h7.4C118.9,42.1,118.8,41.7,118.8,41.7z"/>
			<path d="M101.7,41.4l5.1-3.3l0.1-0.1l2.9-4.9l0.1-0.1l0.4-6.1c0,0-0.2-0.3-0.6-0.2l-3.8,6.4l-0.9,1.5l-3.8,6.4
				C101.3,41.3,101.7,41.4,101.7,41.4z"/>
			<path d="M119.2,41.4l-5.1-3.3l-0.1-0.1l-2.9-4.9l-0.1-0.1l-0.4-6.1c0,0,0.2-0.3,0.6-0.2L115,33l0.9,1.5l3.8,6.4
				C119.5,41.3,119.2,41.4,119.2,41.4z"/>
		</g>
	</g>
</g>
<g id="Calque_6" class="st0">
	<rect x="-0.3" y="-0.6" class="st1" width="160" height="70.3"/>
	<g class="st2">
		<g>
			<path class="st9" d="M107,38.1c0-0.2,0-0.3,0.7-0.5c0.7-0.2,2.6-0.8,3.7-1.5c1.1-0.6,1.3-0.7,1.5-0.5c0.3,0.2,0.2,0.6,0.2,0.9v3
				c0.4-0.7,1.7-2.9,2.8-3.5c0.8-0.5,1.1-0.6,1.6-0.6c0.6,0,2.1,0.4,2.1,1.9c0.1,1.2-0.8,1.7-1.4,1.6c-0.5-0.1-0.8-0.5-1-0.9
				c-0.3-0.4-0.7-0.7-1.1-0.5c-0.4,0.1-2.8,1.7-3,3.9c-0.1,1.6,0,6.7,0,6.7c0,0.8,0.3,1.1,0.6,1.3c0.3,0.2,1.6,0.2,2,0.3
				c0.4,0,0.3,0.1,0.3,0.2c0,0.1,0,0.2-0.3,0.2h-8.5c-0.3,0-0.4-0.1-0.4-0.2c0-0.2,0.4-0.2,0.6-0.2c0.3,0,1.7,0.1,2.1-0.6
				c0.3-0.5,0.3-1.2,0.3-1.2l0-8.9c0-0.7-0.2-0.8-0.4-0.9c-0.2-0.1-0.5-0.2-1.2,0.1C107.6,38.2,107.1,38.4,107,38.1"/>
			<path class="st9" d="M77.4,38.1c-0.1-0.2,0.1-0.4,0.7-0.5c0.7-0.2,2.2-0.7,3.4-1.3c1.2-0.7,1.4-0.8,1.7-0.7
				c0.3,0.1,0.2,0.5,0.2,0.9V48c0,0.6,0.1,0.9,0.4,1.2c0.3,0.3,1,0.4,2,0.4c0.4,0,0.6,0,0.6,0.2c0,0.2-0.1,0.2-0.3,0.2h-8.4
				c-0.3,0-0.3-0.1-0.3-0.2c0-0.1,0.1-0.2,0.5-0.2c0.3,0,1.8,0.1,2.2-0.7c0.1-0.3,0.2-0.7,0.2-1.1v-9.2c0-0.7-0.5-1-1.2-0.9
				C78.4,38,77.6,38.4,77.4,38.1"/>
			<path class="st9" d="M81.7,30.1c1.1,0,2.1-0.9,2.1-2.1c0-1.1-0.9-2.1-2.1-2.1c-1.1,0-2.1,0.9-2.1,2.1
				C79.7,29.2,80.6,30.1,81.7,30.1"/>
			<path class="st9" d="M94.5,35.1c3.6-0.7,8.7,0.1,9.8,5.7c1.2,5.6-2.7,8.6-6,9.3c-3.3,0.7-8.8,0.2-9.8-5.8
				C87.6,38.9,91.5,35.7,94.5,35.1 M91.8,43.2c0.4,3.8,2.6,6.7,5.4,6.2c2.8-0.5,4.2-3.1,3.8-7.4c-0.3-4.3-2.5-6.5-5.3-6.2
				C92.7,36.1,91.4,39.4,91.8,43.2z"/>
			<path class="st9" d="M39.7,49.8c0-0.3,0.4-0.3,0.7-0.3c3.9-0.1,4.7-0.2,5.1-0.7c0.2-0.3,0.6-0.5,0.6-2.3v-25
				c0-2.2-2.7-1.9-4.7-2.1c-0.7-0.1-0.7-0.2-0.7-0.4c0-0.2,0.1-0.3,0.5-0.3H57c17.4,0,18.3,12.7,18.3,16.1c0,7.3-4.8,15.3-14.9,15.3
				H40.2C39.9,50.1,39.7,50.1,39.7,49.8 M52.2,49.1h2.1c7.7,0,9.8-0.7,12.5-4.3c2.7-3.6,3-8.8,3-10.5c0-1.8-0.5-6.1-3.2-9.9
				c-2.7-3.7-7.2-4.7-11.2-4.7h-3.2c-0.8,0-0.8,0.3-0.8,0.9v27.8C51.4,49.1,51.6,49.1,52.2,49.1z"/>
			<path class="st9" d="M107,38.1c0-0.2,0-0.3,0.7-0.5c0.7-0.2,2.6-0.8,3.7-1.5c1.1-0.6,1.3-0.7,1.5-0.5c0.3,0.2,0.2,0.6,0.2,0.9v3
				c0.4-0.7,1.7-2.9,2.8-3.5c0.8-0.5,1.1-0.6,1.6-0.6c0.6,0,2.1,0.4,2.1,1.9c0.1,1.2-0.8,1.7-1.4,1.6c-0.5-0.1-0.8-0.5-1-0.9
				c-0.3-0.4-0.7-0.7-1.1-0.5c-0.4,0.1-2.8,1.7-3,3.9c-0.1,1.6,0,6.7,0,6.7c0,0.8,0.3,1.1,0.6,1.3c0.3,0.2,1.6,0.2,2,0.3
				c0.4,0,0.3,0.1,0.3,0.2c0,0.1,0,0.2-0.3,0.2h-8.5c-0.3,0-0.4-0.1-0.4-0.2c0-0.2,0.4-0.2,0.6-0.2c0.3,0,1.7,0.1,2.1-0.6
				c0.3-0.5,0.3-1.2,0.3-1.2l0-8.9c0-0.7-0.2-0.8-0.4-0.9c-0.2-0.1-0.5-0.2-1.2,0.1C107.6,38.2,107.1,38.4,107,38.1"/>
			<path class="st9" d="M77.4,38.1c-0.1-0.2,0.1-0.4,0.7-0.5c0.7-0.2,2.2-0.7,3.4-1.3c1.2-0.7,1.4-0.8,1.7-0.7
				c0.3,0.1,0.2,0.5,0.2,0.9V48c0,0.6,0.1,0.9,0.4,1.2c0.3,0.3,1,0.4,2,0.4c0.4,0,0.6,0,0.6,0.2c0,0.2-0.1,0.2-0.3,0.2h-8.4
				c-0.3,0-0.3-0.1-0.3-0.2c0-0.1,0.1-0.2,0.5-0.2c0.3,0,1.8,0.1,2.2-0.7c0.1-0.3,0.2-0.7,0.2-1.1v-9.2c0-0.7-0.5-1-1.2-0.9
				C78.4,38,77.6,38.4,77.4,38.1"/>
			<path class="st9" d="M81.7,30.1c1.1,0,2.1-0.9,2.1-2.1c0-1.1-0.9-2.1-2.1-2.1c-1.1,0-2.1,0.9-2.1,2.1
				C79.7,29.2,80.6,30.1,81.7,30.1"/>
			<path class="st9" d="M94.5,35.1c3.6-0.7,8.7,0.1,9.8,5.7c1.2,5.6-2.7,8.6-6,9.3c-3.3,0.7-8.8,0.2-9.8-5.8
				C87.6,38.9,91.5,35.7,94.5,35.1 M91.8,43.2c0.4,3.8,2.6,6.7,5.4,6.2c2.8-0.5,4.2-3.1,3.8-7.4c-0.3-4.3-2.5-6.5-5.3-6.2
				C92.7,36.1,91.4,39.4,91.8,43.2z"/>
			<path class="st9" d="M39.7,49.8c0-0.3,0.4-0.3,0.7-0.3c3.9-0.1,4.7-0.2,5.1-0.7c0.2-0.3,0.6-0.5,0.6-2.3v-25
				c0-2.2-2.7-1.9-4.7-2.1c-0.7-0.1-0.7-0.2-0.7-0.4c0-0.2,0.1-0.3,0.5-0.3H57c17.4,0,18.3,12.7,18.3,16.1c0,7.3-4.8,15.3-14.9,15.3
				H40.2C39.9,50.1,39.7,50.1,39.7,49.8 M52.2,49.1h2.1c7.7,0,9.8-0.7,12.5-4.3c2.7-3.6,3-8.8,3-10.5c0-1.8-0.5-6.1-3.2-9.9
				c-2.7-3.7-7.2-4.7-11.2-4.7h-3.2c-0.8,0-0.8,0.3-0.8,0.9v27.8C51.4,49.1,51.6,49.1,52.2,49.1z"/>
		</g>
	</g>
</g>
<g id="Calque_7" class="st0">
	<rect x="-0.3" y="-0.6" class="st1" width="160" height="70.3"/>
	<path class="st2" d="M49.9,42.8c-0.6,0-1.1,0.4-1.1,1.1c0,0.6,0.5,1.1,1.1,1.1s1.1-0.4,1.1-1.1C51,43.3,50.5,42.8,49.9,42.8z
		 M49.9,44.7c-0.5,0-0.8-0.3-0.8-0.8c0-0.4,0.3-0.8,0.8-0.8c0.5,0,0.8,0.3,0.8,0.8C50.7,44.4,50.3,44.7,49.9,44.7z"/>
	<polygon class="st2" points="60.9,39 55.4,39 56,29.4 52.5,39 47.3,39 55.5,17.3 60.9,17.3 60.3,27 63.9,17.3 69.1,17.3 	"/>
	<polygon class="st2" points="61.6,39 69.7,17.3 74.9,17.3 66.7,39 	"/>
	<path class="st2" d="M46.7,31.5c-7.2,8.4-13.9,19.6-8,24.8c5.8,5,13,2,17.9,0.1c4.9-2,59.4-25.6,59.4-25.6c0.5-0.3,0.4-0.6-0.2-0.4
		c-0.3,0.1-59.3,16.1-59.3,16.1C49.1,48.5,40.6,43.9,46.7,31.5z"/>
	<path class="st2" d="M50.1,44c0.2,0,0.3-0.1,0.3-0.3c0-0.3-0.2-0.4-0.5-0.4h-0.4v1.2h0.3V44h0.1l0.3,0.5h0.3L50.1,44z M49.9,43.8
		h-0.2v-0.3h0.1c0.1,0,0.2,0,0.2,0.1C50.1,43.8,50,43.8,49.9,43.8z"/>
	<path class="st2" d="M101.4,17.3c-0.6,0-1.1,0.4-1.1,1.1c0,0.6,0.5,1.1,1.1,1.1c0.6,0,1.1-0.4,1.1-1.1
		C102.6,17.7,102.1,17.3,101.4,17.3z M101.4,19.1c-0.5,0-0.8-0.3-0.8-0.8c0-0.4,0.3-0.8,0.8-0.8c0.5,0,0.8,0.3,0.8,0.8
		C102.2,18.8,101.9,19.1,101.4,19.1z"/>
	<path class="st2" d="M101.6,18.4c0.2,0,0.3-0.1,0.3-0.3c0-0.3-0.2-0.4-0.5-0.4H101v1.2h0.3v-0.5h0.1l0.3,0.5h0.3L101.6,18.4z
		 M101.4,18.2h-0.2V18h0.1c0.1,0,0.2,0,0.2,0.1C101.6,18.2,101.5,18.2,101.4,18.2z"/>
	<path class="st2" d="M98.1,20.9l1.4-3.6H89.2h0h-5.3l-5.4,6.5l2.5-6.5h-5.2L67.6,39h5.1l3.4-9.1l0.2,9.1l15.7,0l1.5-4.2h-6l2-5.3
		h4.9l1.5-4h-4.9l1.7-4.6H98.1z M81.5,37.6l-0.3-11.3l7.8-8.5L81.5,37.6z"/>
</g>
<g id="Calque_8">
	<rect x="-0.3" y="-0.6" class="st10" width="160" height="70.3"/>
	<g>
		<g>
			<path d="M100.2,32c-0.2-0.2-0.4-0.3-0.6-0.4c-0.2-0.1-0.1-0.3-0.3-0.3c-0.1,0-0.4,0.3-0.6,0.2c-0.2-0.1-0.2-0.4-0.4-0.5
				c-0.2-0.1-0.5,0.2-0.6,0.2c-0.2,0-0.2-0.4-0.3-0.5c-0.2,0-0.5,0.2-0.6,0.2c-0.2-0.1-0.2-0.4-0.3-0.5c-0.2-0.1-0.5,0.2-0.6,0.2
				c-0.2,0-0.2-0.4-0.3-0.5c-0.2-0.1-0.5,0.2-0.6,0.2c-0.2-0.1-0.2-0.4-0.4-0.5c-0.1,0-0.4,0.2-0.7,0.2c-1.6-0.2-2.3-1.2-2.4-0.9
				c-0.1,0.3,0.3,1,0.9,1.3c0.5,0.2,5.4,1.6,5.5,1.6c0.1,0.1,0.4,0.2,0.3,0.4c-0.2,0.2-0.7,0-0.8-0.1c-0.1-0.1-0.1-0.1-0.2-0.2
				c-0.3-0.1-0.4,0.4-0.7,0.4c-0.3-0.1-0.2-0.6-0.5-0.6c-0.3-0.1-0.4,0.4-0.7,0.4c-0.2-0.1-0.3-0.6-0.5-0.6
				c-0.3-0.1-0.4,0.4-0.7,0.3c-0.2-0.1-0.2-0.6-0.5-0.6c-0.3-0.1-0.4,0.4-0.7,0.4c-0.2-0.1-0.3-0.6-0.5-0.6c-0.2,0-0.4,0.2-0.7,0.3
				c0,0-0.9,0.2-2.2-1.2c-1.4-1.4-1.9-1.7-2.7-1.1c-1.3,0.9-2,0.3-2.3,0c-0.3-0.3,0-0.6,0-0.6s0.4,0.6,0.9,0.6
				c0.8,0,1.4-1.1,2.8-1.1c1.8-0.1,2.2,0.6,2.7,0.6c0.4,0,0.6,0,0.9-0.2h0c0.3-0.1,0.5,0.4,0.7,0.3c0.3-0.1,0.1-0.6,0.4-0.7
				c0.3-0.1,0.5,0.4,0.7,0.3c0.3-0.1,0.1-0.6,0.4-0.7c0.3-0.1,0.4,0.4,0.7,0.3c0.3-0.1,0.1-0.6,0.4-0.7c0.3-0.1,0.5,0.4,0.7,0.3
				c0.3-0.1,0.1-0.6,0.4-0.7c0.3-0.1,0.5,0.4,0.7,0.3c0.2-0.1,0.1-0.6,0.4-0.7c0.2-0.1,0.5,0.4,0.7,0.3c0.2-0.1,0.1-0.6,0.4-0.7
				c0.3-0.1,0.5,0.4,0.7,0.3c0.3-0.1,0.1-0.5,0.4-0.7c0,0,0.5-0.2,0.4-0.5c0-0.1-0.1-0.8-0.9-0.9c-0.7-0.1-6.5,1.5-6.6,1.4
				c-0.5-1.1-1.2-0.8-1.3-0.7c-0.1,0-0.8,0.3-1.5,0c-1.4-0.6-2.5,1-3.3,0.8c-0.7-0.2-1.2-0.1-1.5,0c-0.3,0.1-0.7,0.4-1.6,0.1
				c-7.2-2.5-12.8-0.3-12.8-0.3c-3.2,1.1-3.6,0-3.6,0s-1-1.4,6.3-3.1c10.6-2.4,10.9-6.5,10.8-6.7c-0.2-0.4-0.2,0.1-0.6,0.5
				c-0.3,0.3-0.6,0.2-0.6,0.2c-0.3-0.2-0.5,0.2-0.5,0.2s-0.4,0.7-0.8,0.3c-0.4-0.4-0.8,0.5-1,0.5c-0.2,0-0.3-0.1-0.6-0.2
				c-0.4-0.2-0.9,0.6-1.1,0.7c-0.4,0.1-0.6-0.4-0.9-0.2c-0.9,0.6-1.1,0.7-1.3,0.5c-0.2-0.2-0.2-0.4-0.8,0.2c-0.5,0.5-0.8,0.6-1,0.3
				c-0.2-0.3-0.2-0.8-1.1,0.1c-0.4,0.4-0.7,0.4-0.9,0.2c-0.2-0.1-0.2-0.8-0.8-0.2c-0.6,0.6-1,0.8-1.2,0.3c-0.2-0.6-0.9,0.1-1.1,0.3
				c-0.2,0.2-0.5,0.6-0.8,0.1c-0.3-0.4-0.9,0.2-1.2,0.6c-0.3,0.3-0.5,0.1-0.8-0.1c-0.3-0.2-1.3,1.2-1.4,1.2c-0.1,0.1-0.2,0-0.4-0.2
				c-0.4-0.3-1.3,1.4-1.5,1.5c0,0-0.1,0.1-0.3-0.1c-0.4-0.4-2.3,2.2-3.1,5.1c-0.9,3.7,0.6,6.6,0.6,6.6s0.5,0,0.6-0.3l0.3-0.7
				c0.2-0.6,0.6-0.4,0.6-0.4l-0.9,2.7c-0.1,0.4-0.1,0.9,0.3,1.4c0.3,0.5,0.5,0.8,0.8,1c0.7,0.7,0.7-0.1,0.7-0.2
				c0.1-0.4,0.6-0.1,1,0.1c0.7,0.4,0.6-0.5,0.8-0.8c0.1-0.2,0.5-0.2,0.8,0.1c0.3,0.2,0.6-0.6,0.6-0.6c0.4-1.8-0.5-2-1-2l-0.9,0
				c0,0,0.1-0.3,0.2-0.5l0-0.2c1-2.6-0.7-3-1.2-3c-0.6,0.1-0.5-0.3-0.5-0.3s3.1-0.6,2.5,2.7c0,0-0.1,0.6-0.2,0.9l0.8,0.1
				c0.7,0.1,0.9,1,0.9,1s2.7,0.7,4.2,0.4c0,0,0.7-0.2,0.9-0.6c0,0,1-2.3,3.9-2.4c0,0,0.1,0.3-0.4,0.5c-0.6,0.2-2.4,0.3-2.8,2.4v0
				c0,0.3,0.1,1.1,0.8,1.4c0.6,0.3,0.9,1.5,1,1.8c0.4,0.9,0.9,0,0.9,0s0.4-0.7,0.7-0.3c0.5,0.7,0.8,0.3,0.9-0.1
				c0.1-0.5,0.3-0.7,0.9-0.1c0.2,0.2,0.7,0.1,0.7-0.4c0.1-0.9,0.7-0.2,0.8-0.2c0.1,0,0.8-0.1,0.4-1.1c0,0-0.5-1-2.7-1.4
				c-0.5-0.1-0.4-0.5-0.4-0.5l0.5,0.1c0.1,0,1.4,0.2,1.6,0.2c5.4,0.5,9.6-1.3,9.7-1.4c4.2,0.8,10,0.5,11,0.1
				C100.2,32.8,100.3,32.2,100.2,32z M91.5,25.3c0.1-0.1,0.2-0.2,0.2-0.3c0.3-0.2,0.5,0.4,0.5,0.4c0,0,0,0,0,0c0,0,0,0,0,0
				c-0.1,0-0.7,0.2-0.7,0.2C91.3,25.5,91.5,25.3,91.5,25.3z M89.1,25.5c0,0,0.1-0.1,0.2-0.2c0.2-0.1,0.4-0.1,0.7,0.1
				c0.4,0.2,0.3,0.4,0.3,0.4c0,0,0,0,0,0C90.1,26,89,26.1,89,26.1C88.8,25.7,89.1,25.5,89.1,25.5z M69.2,20.3c0.2,0.1,0,0.9-0.1,0.8
				l-0.9-0.5C68.1,20.6,69,20.2,69.2,20.3z M67.7,20.8c0.2,0.1,0,0.9-0.1,0.8l-0.9-0.5C66.7,21.1,67.5,20.7,67.7,20.8z M67.2,22.4
				c0.2,0.1,0,0.9-0.1,0.8l-0.9-0.5C66.1,22.7,67,22.2,67.2,22.4z M66.3,24.5L65.4,24c0,0,0.9-0.5,1-0.3
				C66.6,23.8,66.4,24.6,66.3,24.5z M66.1,26l-0.9-0.5c0,0,0.9-0.5,1-0.3C66.4,25.4,66.3,26.2,66.1,26z M66.1,21.4
				c0.2,0.1,0,0.9-0.1,0.8l-0.9-0.5C65.1,21.7,65.9,21.2,66.1,21.4z M65.3,22.6c0.2,0.1,0,0.9-0.1,0.8l-0.9-0.5
				C64.3,22.9,65.1,22.4,65.3,22.6z M63.7,24.5c0,0,0.9-0.5,1-0.3c0.2,0.1,0,0.9-0.1,0.8L63.7,24.5z M64.4,26.5L63.5,26
				c0,0,0.9-0.5,1-0.3C64.7,25.8,64.5,26.6,64.4,26.5z M63.7,23.1c0.2,0.1,0,0.9-0.1,0.8l-0.9-0.5C62.7,23.5,63.5,23,63.7,23.1z
				 M62.9,24.7c0.2,0.1,0,0.9-0.1,0.8l-0.9-0.5C61.8,25.1,62.7,24.6,62.9,24.7z M61.7,26.6c0,0,0.9-0.5,1-0.3c0.2,0.1,0,0.9-0.1,0.8
				L61.7,26.6z M63.3,28.4L62.4,28c0,0,0.9-0.5,1-0.3C63.6,27.8,63.4,28.6,63.3,28.4z M64.6,29.5L63.7,29c0,0,0.9-0.5,1-0.3
				C64.9,28.8,64.8,29.6,64.6,29.5z M65,27.8l-0.9-0.5c0,0,0.9-0.5,1-0.3C65.3,27.2,65.2,28,65,27.8z M66.3,30.2l-0.9-0.5
				c0,0,0.9-0.5,1-0.3C66.6,29.6,66.4,30.3,66.3,30.2z M66.7,28.7l-0.9-0.5c0,0,0.9-0.5,1-0.3C67,28,66.8,28.8,66.7,28.7z M67,27.2
				l-0.9-0.5c0,0,0.9-0.5,1-0.3C67.3,26.6,67.1,27.4,67,27.2z M68.3,30l-0.9-0.5c0,0,0.9-0.5,1-0.3C68.6,29.4,68.4,30.2,68.3,30z
				 M68.7,28.5L67.8,28c0,0,0.9-0.5,1-0.3C69,27.8,68.8,28.6,68.7,28.5z M69,26.9l-0.9-0.5c0,0,0.9-0.5,1-0.3
				C69.3,26.2,69.2,27,69,26.9z M70.3,29.8l-0.9-0.5c0,0,0.9-0.5,1-0.3C70.6,29.1,70.5,29.9,70.3,29.8z M70.6,28.1l-0.9-0.5
				c0,0,0.9-0.5,1-0.3C70.9,27.4,70.8,28.2,70.6,28.1z M71,26.4L70,26c0,0,0.9-0.5,1-0.3C71.3,25.8,71.1,26.6,71,26.4z M72.3,29.1
				l-0.9-0.5c0,0,0.9-0.5,1-0.3C72.6,28.4,72.5,29.2,72.3,29.1z M72.6,27.5L71.7,27c0,0,0.9-0.5,1-0.3
				C72.9,26.8,72.7,27.6,72.6,27.5z M72.9,25.9L72,25.4c0,0,0.9-0.5,1-0.3C73.2,25.2,73,26,72.9,25.9z M74.3,28.8l-0.9-0.5
				c0,0,0.9-0.5,1-0.3C74.6,28.1,74.4,28.9,74.3,28.8z M74.6,27.3l-0.9-0.5c0,0,0.9-0.5,1-0.3C74.9,26.6,74.7,27.4,74.6,27.3z
				 M74.9,25.7L74,25.2c0,0,0.9-0.5,1-0.3C75.2,25,75,25.8,74.9,25.7z M76.1,28.8l-0.9-0.5c0,0,0.9-0.5,1-0.3
				C76.4,28.1,76.3,28.9,76.1,28.8z M76.5,27.2l-0.9-0.5c0,0,0.9-0.5,1-0.3C76.7,26.5,76.6,27.3,76.5,27.2z M76.8,25.6l-0.9-0.5
				c0,0,0.9-0.5,1-0.3C77.1,24.9,76.9,25.7,76.8,25.6z M78.1,28.8l-0.9-0.5c0,0,0.9-0.5,1-0.3C78.4,28.1,78.2,28.9,78.1,28.8z
				 M78.4,27.3l-0.9-0.5c0,0,0.9-0.5,1-0.3C78.7,26.6,78.5,27.4,78.4,27.3z M78.7,25.7l-0.9-0.5c0,0,0.9-0.5,1-0.3
				C79,25,78.8,25.8,78.7,25.7z M79.9,29l-0.9-0.5c0,0,0.9-0.5,1-0.3C80.2,28.3,80,29.1,79.9,29z M80.2,27.6l-0.9-0.5
				c0,0,0.9-0.5,1-0.3C80.5,26.9,80.3,27.7,80.2,27.6z M80.5,26l-0.9-0.5c0,0,0.9-0.5,1-0.3C80.8,25.4,80.7,26.2,80.5,26z M82,27.9
				l-0.9-0.5c0,0,0.9-0.5,1-0.3C82.3,27.2,82.1,28,82,27.9z"/>
		</g>
		<g>
			<path d="M57.8,41.8c-0.2-0.5-0.6-0.7-1.2-0.7c-0.1,0-3.2,0-3.2,0l-4.6,12.5c0,0,2.2,0,2.2,0c0.2,0,0.4,0,0.5-0.1
				c0.4-0.2,0.6-0.7,0.7-0.9c0,0,0.6-1.7,0.7-1.8c0.3,0,4.4,0,4.6,0c0.1,0.3,0.9,2.8,0.9,2.8h3l-1.9-6.1L57.8,41.8 M56.9,48.2
				c-0.5,0-2.9,0-3.1,0c0.3-0.9,1.2-3.2,1.5-4.2C55.6,44.9,56.9,48.1,56.9,48.2z"/>
			<path d="M79.5,41L79.5,41L79.5,41c-3.6,0-6.2,2.7-6.2,6.4c0,3.6,2.6,6.3,6.2,6.3c3.5,0,6.3-2.8,6.3-6.3C85.8,43.8,83,41,79.5,41
				 M79.6,50.9c-1.8,0-3.2-1.6-3.2-3.6c0-2,1.4-3.5,3.2-3.5c1.8,0,3.2,1.5,3.2,3.5C82.7,49.3,81.4,50.9,79.6,50.9z"/>
			<path d="M93.8,46.2l-0.1,0c0,0-1.2-0.4-1.2-0.4l-0.2-0.1c-0.9-0.3-1.6-0.6-1.6-1.2c0,0,0,0,0,0c0.1-0.9,1.8-0.9,1.8-0.9
				c0.9,0,1.7,0.1,2.6,0.5l0,0l0,0c0.2,0,0.4,0,0.5,0l0.3-0.1c0.4-0.2,0.7-1.3,0.9-1.7l0-0.1l-0.1-0.1c0,0-0.3-0.3-1.3-0.6
				c-1-0.4-2.4-0.4-2.4-0.4l-0.7,0c-3.6,0-5,2.2-5,3.7c0,1.5,0.8,2.2,2.1,2.9c0.5,0.3,1.5,0.6,2.2,0.8c0,0,0.7,0.2,0.7,0.2
				c1.3,0.4,1.9,0.9,1.8,1.6c0,0.2-0.5,0.6-1.5,0.6c-0.8,0-1.5-0.1-2.2-0.4c-0.4-0.1-0.7-0.3-1.1-0.6l0,0l0,0
				c-0.2-0.1-0.4-0.1-0.6-0.1l-0.3,0.1c-0.4,0.2-1,1.2-1.2,1.6l-0.1,0.2l0.2,0.1c0,0,0.7,0.5,1.2,0.8c0.6,0.4,1.4,0.6,2.2,0.8
				c0.3,0.1,0.9,0.1,1.7,0.1c2.8,0,4.8-1.4,5-3.5C97.6,48.2,96.4,47,93.8,46.2z"/>
			<path d="M99.8,41.1c-0.1,0-0.7,0-1.1,0.3c-0.2,0.1-0.2,0.3-0.2,0.6l0,2c0,0,3.4,0,3.8,0c0,0.5,0,9.6,0,9.6l3.1,0c0,0,0-9.1,0-9.6
				c0.4,0,2.4,0,2.4,0c0.1,0,0.7,0,1.1-0.3c0.2-0.2,0.2-0.3,0.2-0.6v-2H99.8z"/>
			<path d="M46.4,50.7c0,0-2.6,0-3.5,0c0-0.5,0-8.5,0-8.5c0-0.4-0.1-0.6-0.3-0.8c-0.3-0.3-0.8-0.3-1-0.3l-1.8,0l0,12.4h7.8l0-2
				C47.5,51.3,47.4,50.7,46.4,50.7z"/>
			<path d="M68.6,43.7c0.8-0.1,1.4,0,2,0.2c0.3,0.1,0.6,0.1,0.9,0.1c0,0,0.2-0.1,0.2-0.1c0.3-0.2,0.6-1.3,0.7-1.9l0-0.1l-0.1-0.1
				c0,0-0.1-0.1-1.3-0.4c-1-0.3-1.9-0.3-2.4-0.3l0,0c-2.6,0-6.5,1.7-6.6,6.4v0c0.1,4.7,4,6.4,6.6,6.4l0,0c0.5,0,1.4,0,2.4-0.3
				c1.1-0.3,1.2-0.4,1.3-0.4l0.1-0.1l0-0.1c-0.1-0.6-0.4-1.7-0.7-1.9v0l0,0l0,0l-0.2-0.1c-0.2-0.1-0.5,0-0.9,0.1
				C70,51,69.4,51,68.6,51c-2-0.2-3.1-1.5-3.2-3.6C65.5,45.2,66.7,43.9,68.6,43.7z"/>
			<path d="M118.4,53.5c0.5,0,1.3-0.3,1.3-1.3l0-1.6l-5.5,0c0,0,0-1.8,0-2.1c0.5,0,4.5,0,4.5,0l0-2.9c0,0-4.1,0-4.5,0
				c0-0.3,0-1.4,0-1.8c0.4,0,4.2,0,4.2,0c0.1,0,0.7,0,1.1-0.3c0.2-0.2,0.2-0.7,0.2-0.9v-1.6H111l0,12.4L118.4,53.5z"/>
		</g>
	</g>
</g>
<g id="Calque_9">
</g>
<g id="Calque_10">
</g>
<g id="Calque_11">
</g>
<g id="Calque_12">
</g>
</svg>
