<svg id="Calque_1" data-name="Calque 1" xmlns="http://www.w3.org/2000/svg" viewBox="0 0 200 200"><defs><style>.cls-1{fill:#fff;}</style></defs><path class="cls-1" d="M31.46,164.37c8.93-2,12.06-8.78,14.25-16.38,2.53-8.75,4.9-10.22,14.09-8.78,1.43.23,2.85.48,4.26.82,11.85,2.81,22.27.42,30.61-8.54,5.7-6.13,12.6-8.62,21.32-7.64,12.18,3,26.68-9,29-23.11s-10.07-26-24.48-23.11a59,59,0,0,0-16.15,6,35.23,35.23,0,0,1-22.06,3.55,83.74,83.74,0,0,0-16.21-.69C53.26,87.14,50.66,90.31,51,72.3c.13-6.87-1.56-13.43-6.85-18.44-6.72-6.36-18.94-7.73-28.42-3.38a36.64,36.64,0,0,0-8.22,5.08A105.32,105.32,0,0,0,0,81.38c3.47,10.44,13.61,17,28.15,17.7,11,.53,13.2,3.25,11.52,14-.19,1.22-.41,2.44-.57,3.67-.66,5.13-3.33,8.35-8.69,9.47A66.43,66.43,0,0,0,19,129.41c-5.89,2.38-9.88,6.3-11.61,10.89A104.42,104.42,0,0,0,21.57,164,19.87,19.87,0,0,0,31.46,164.37Z"/><path class="cls-1" d="M193.49,119.85c-2.89-5.39-3.38-10.61.71-15.87,8.22-10.55,7.82-15-2-23.93-4-3.63-5.49-7.68-3.7-12.85a20.18,20.18,0,0,0,1.4-8c.06-10-5.71-16.89-17.59-21.27-11.07-4.1-11.07-4.09-10-15.71.1-1.05.22-2.11.23-3.16a21,21,0,0,0-.18-2.77A100.18,100.18,0,0,0,136.1.92a22,22,0,0,0-8.89,7.48c-4.25,6-3,14.09,3.11,20.27,3.76,3.79,8.54,5.86,13.48,7.64,9.32,3.36,9.66,3.58,9.15,13.39-.49,9.57,3.42,16.76,11.37,22,1.94,1.3,3.88,2.59,5.87,3.81,4.09,2.5,5.92,5.8,5,10.71a36.29,36.29,0,0,0,.35,15.79c1.14,4.63-.27,8.38-4.41,11-3.78,2.41-7.65,4.69-11.34,7.23-7.49,5.15-8.86,12.52-7.24,20.72,1.51,7.66,5.48,13.64,13.62,15.53a24.66,24.66,0,0,0,20.14-4.17,105.09,105.09,0,0,0,10.28-23.26A26.48,26.48,0,0,0,193.49,119.85Z"/><path class="cls-1" d="M47.93,36.89c10.35,3.35,17.15,7.72,12.39,18-.11,10,4.32,16.37,11.22,17.73,7.09,1.41,14.79-2.55,17.29-8.89,2.7-6.81-.3-13.74-8.09-18.18a48.25,48.25,0,0,0-7.88-3.48c-4.38-1.54-5.92-4.27-4.52-8.66s2.92-8.75,4-13.21c2.05-8.38-.1-15.3-6.2-20.18A100.72,100.72,0,0,0,30.83,22.07C34.6,29,40.26,34.41,47.93,36.89Z"/><path class="cls-1" d="M119.92,178.34a22.69,22.69,0,0,0-8.6-.37c-5.68.61-9.3-1.83-11.61-6.7A53.77,53.77,0,0,0,92.25,159c-3.67-4.25-8-7.1-14-6.88-7.33.44-13.22,3.48-16.79,9.88C58,168.24,59.94,174,63.93,179.3c7.69,10.3,15.1,12.79,27.66,9.27,6.81-1.91,9.46-1,14,4.62a23.85,23.85,0,0,0,4.47,4.56c4.24,3,8.77,2.94,13.2.28,4.21-2.53,6.43-6.27,5.79-11.12C128.41,181.8,124.52,179.63,119.92,178.34Z"/><path class="cls-1" d="M121.58,133.06c-8.53-.43-15.92,6-16.26,14.23a14,14,0,0,0,13.77,14.62c8.39.25,15.66-6.67,16.07-15.3C135.5,139.42,129.53,133.47,121.58,133.06Z"/><path class="cls-1" d="M47,182.62c-2.37-1-5.06-1.64-7.37-.93a101,101,0,0,0,12,7.9C52.24,186.8,50.59,184.15,47,182.62Z"/><path class="cls-1" d="M97.68,17c-6,.06-11.72,5.35-11.82,11-.12,6.21,6.3,12.17,13.21,12.27a10.51,10.51,0,0,0,10.75-10.86A12.25,12.25,0,0,0,97.68,17Z"/><path class="cls-1" d="M124.25,50.36c-4.15.09-6.3,2.45-6.52,6.32-.19,3.47,4.09,7.17,8.06,7.19,4.21,0,4.89-2.84,5-6.1C130.75,53.05,128.34,50.26,124.25,50.36Z"/><path class="cls-1" d="M15.17,105.92c-3.94,0-6.33,2.37-6.35,6.34s2.63,5.82,6.46,6.18c3.85-.33,6.2-2.42,6.18-6S19.16,105.94,15.17,105.92Z"/><path class="cls-1" d="M161.62,172.42c-3.88.21-5.65,2.59-5.86,6.11a6.23,6.23,0,0,0,2.29,4.73,102.83,102.83,0,0,0,9.38-7.67C166.57,173.47,164.55,172.25,161.62,172.42Z"/></svg>