<?xml version="1.0" encoding="utf-8"?>
<!-- Generator: Adobe Illustrator 25.0.0, SVG Export Plug-In . SVG Version: 6.00 Build 0)  -->
<svg version="1.1" id="Calque_1" xmlns="http://www.w3.org/2000/svg" xmlns:xlink="http://www.w3.org/1999/xlink" x="0px" y="0px"
	 viewBox="0 0 200 200" enable-background="new 0 0 200 200" xml:space="preserve">
<g>
	<g>
		<path fill="#EC0928" d="M31.46,164.37c8.93-2.02,12.05-8.78,14.25-16.38c2.53-8.75,4.9-10.22,14.09-8.78
			c1.43,0.22,2.85,0.48,4.25,0.81c11.86,2.82,22.27,0.42,30.61-8.54c5.7-6.12,12.6-8.61,21.32-7.64
			c12.18,3.02,26.68-8.99,29.04-23.1c2.38-14.22-10.07-25.98-24.48-23.11c-5.71,1.14-11.06,3.26-16.16,5.97
			c-6.95,3.68-14.36,4.66-22.06,3.55c-5.39-0.77-10.78-0.97-16.2-0.69c-12.88,0.68-15.47,3.85-15.12-14.17
			c0.13-6.87-1.56-13.42-6.85-18.43c-6.72-6.36-18.94-7.73-28.42-3.38c-3.17,1.45-5.91,3.16-8.22,5.08
			C3.98,63.67,1.42,72.33,0,81.38c3.47,10.44,13.61,16.98,28.15,17.7c10.96,0.54,13.19,3.25,11.52,13.99
			c-0.19,1.22-0.41,2.44-0.57,3.67c-0.66,5.13-3.33,8.35-8.69,9.47c-3.87,0.81-7.78,1.73-11.42,3.2c-5.88,2.37-9.87,6.3-11.61,10.89
			c3.7,8.56,8.49,16.51,14.19,23.66C24.79,164.9,28.2,165.1,31.46,164.37z"/>
	</g>
	<g>
		<path fill="#EC0928" d="M193.49,119.85c-2.89-5.39-3.38-10.61,0.71-15.87c8.22-10.55,7.82-15.01-1.97-23.93
			c-3.99-3.63-5.49-7.68-3.7-12.85c0.93-2.67,1.61-5.45,1.4-8.01c0.06-10.01-5.72-16.89-17.59-21.28
			c-11.07-4.09-11.07-4.09-9.95-15.7c0.1-1.05,0.23-2.11,0.23-3.17c0-0.94-0.06-1.86-0.18-2.76c-7.91-6.4-16.78-11.6-26.35-15.37
			c-3.35,1.51-6.43,4.03-8.89,7.49c-4.24,5.96-3,14.09,3.12,20.27c3.75,3.79,8.54,5.86,13.47,7.64c9.32,3.36,9.66,3.58,9.15,13.4
			c-0.49,9.57,3.42,16.75,11.37,22.04c1.94,1.29,3.88,2.58,5.87,3.8c4.09,2.51,5.92,5.81,4.96,10.71
			c-1.02,5.23-0.95,10.54,0.35,15.8c1.14,4.62-0.27,8.37-4.41,11.01c-3.78,2.41-7.65,4.69-11.34,7.23
			c-7.49,5.16-8.86,12.52-7.24,20.73c1.51,7.66,5.48,13.64,13.62,15.53c7.22,1.68,14.5-0.06,20.14-4.17
			c4.31-7.22,7.78-15.02,10.28-23.26C196.16,126.01,195.14,122.92,193.49,119.85z"/>
	</g>
	<g>
		<path fill="#EC0928" d="M47.93,36.89c10.35,3.35,17.15,7.71,12.39,17.98c-0.11,10.04,4.32,16.36,11.22,17.73
			c7.09,1.4,14.79-2.55,17.3-8.89c2.69-6.81-0.3-13.74-8.09-18.19c-2.48-1.41-5.18-2.52-7.88-3.47c-4.38-1.54-5.92-4.28-4.52-8.66
			c1.4-4.38,2.91-8.75,4-13.21c2.05-8.39-0.1-15.3-6.2-20.18C52.89,4.82,40.9,12.4,30.83,22.07C34.6,29.04,40.26,34.41,47.93,36.89z
			"/>
	</g>
	<g>
		<path fill="#EC0928" d="M119.92,178.34c-2.85-0.8-5.76-0.68-8.6-0.38c-5.68,0.61-9.3-1.83-11.61-6.7
			c-2.05-4.33-4.29-8.56-7.46-12.24c-3.66-4.25-8.01-7.1-14-6.89c-7.33,0.44-13.22,3.48-16.79,9.89
			c-3.46,6.21-1.52,11.94,2.47,17.28c7.68,10.29,15.1,12.79,27.66,9.27c6.81-1.91,9.46-1,14.03,4.62c1.34,1.65,2.75,3.35,4.47,4.56
			c4.24,2.97,8.78,2.94,13.2,0.28c4.21-2.53,6.43-6.27,5.79-11.13C128.41,181.8,124.52,179.63,119.92,178.34z"/>
	</g>
	<g>
		<path fill="#EC0928" d="M121.58,133.06c-8.53-0.44-15.92,6.03-16.26,14.23c-0.33,7.92,5.75,14.37,13.77,14.62
			c8.39,0.26,15.65-6.66,16.06-15.29C135.5,139.42,129.53,133.47,121.58,133.06z"/>
	</g>
	<g>
		<path fill="#EC0928" d="M47.04,182.62c-2.36-1.02-5.05-1.64-7.37-0.93c3.82,2.91,7.84,5.55,12.04,7.9
			C52.24,186.8,50.59,184.15,47.04,182.62z"/>
	</g>
	<g>
		<path fill="#EC0928" d="M97.68,16.97c-6.01,0.06-11.72,5.36-11.83,10.96c-0.12,6.2,6.31,12.17,13.21,12.27
			c6.1,0.09,10.78-4.65,10.75-10.87C109.78,22.47,104.32,16.9,97.68,16.97z"/>
	</g>
	<g>
		<path fill="#EC0928" d="M124.25,50.36c-4.15,0.1-6.3,2.45-6.52,6.32c-0.19,3.47,4.08,7.18,8.05,7.19c4.22,0.02,4.89-2.85,5-6.11
			C130.75,53.05,128.34,50.26,124.25,50.36z"/>
	</g>
	<g>
		<path fill="#EC0928" d="M15.17,105.92c-3.93-0.02-6.33,2.38-6.34,6.34c-0.02,4.1,2.63,5.82,6.46,6.19
			c3.84-0.33,6.2-2.43,6.18-6.03C21.44,108.68,19.16,105.94,15.17,105.92z"/>
	</g>
	<g>
		<path fill="#EC0928" d="M161.62,172.42c-3.88,0.22-5.66,2.59-5.86,6.11c0.21,2.16,0.96,3.79,2.29,4.73
			c3.28-2.37,6.41-4.93,9.38-7.67C166.57,173.47,164.55,172.25,161.62,172.42z"/>
	</g>
</g>
</svg>
